<svg width="36" height="31" viewBox="0 0 36 31" fill="none" xmlns="http://www.w3.org/2000/svg">
<path d="M17.1498 17.8768C17.1498 15.2609 18.742 13.01 21.0081 12.0419V5.03325C21.0081 4.67262 21.3015 4.37921 21.6622 4.37921H21.8782V1.33911C21.8782 0.939027 21.5539 0.614746 21.1539 0.614746H0.724359C0.324281 0.614746 0 0.939027 0 1.33911V29.4453C0 29.8453 0.324281 30.1696 0.724359 30.1696H21.1539C21.5539 30.1696 21.8783 29.8453 21.8783 29.4453V23.3751C19.1602 22.6596 17.1498 20.8163 17.1498 17.8768Z" fill="#DFF6FD"/>
<path d="M18.8689 21.6875V29.4452C18.8689 29.8452 18.5446 30.1695 18.1445 30.1695H21.1536C21.5536 30.1695 21.8779 29.8453 21.8779 29.4452V23.375C20.7096 23.0675 19.6723 22.5431 18.8689 21.6875Z" fill="#C8EFFE"/>
<path d="M18.8689 1.33911V13.5399C19.4665 12.9033 20.1935 12.3898 21.0078 12.0419V5.03325C21.0078 4.67262 21.3012 4.37921 21.6618 4.37921H21.8779V1.33911C21.8779 0.939098 21.5536 0.614746 21.1536 0.614746H18.1445C18.5446 0.614746 18.8689 0.939027 18.8689 1.33911Z" fill="#C8EFFE"/>
<path d="M10.7227 25.4844H3.76172C3.54811 25.4844 3.375 25.3113 3.375 25.0977V18.1367C3.375 17.9231 3.54811 17.75 3.76172 17.75H10.7227C10.9363 17.75 11.1094 17.9231 11.1094 18.1367V25.0977C11.1094 25.3113 10.9363 25.4844 10.7227 25.4844Z" fill="#26A6FE"/>
<path d="M10.7598 17.75H8.43945C8.65306 17.75 8.82617 17.9231 8.82617 18.1367V25.0977C8.82617 25.3113 8.65306 25.4844 8.43945 25.4844H10.7598C10.9734 25.4844 11.1465 25.3113 11.1465 25.0977V18.1367C11.1465 17.9232 10.9734 17.75 10.7598 17.75Z" fill="#0593FC"/>
<path d="M8.07693 6.19605H6.91797C6.62666 6.19605 6.39062 5.95994 6.39062 5.6687C6.39062 5.37747 6.62666 5.14136 6.91797 5.14136H8.07693C8.36823 5.14136 8.60427 5.37747 8.60427 5.6687C8.60427 5.95994 8.36823 6.19605 8.07693 6.19605Z" fill="#8AC9FE"/>
<path d="M5.17878 6.19605H3.87793C3.58662 6.19605 3.35059 5.95994 3.35059 5.6687C3.35059 5.37747 3.58662 5.14136 3.87793 5.14136H5.17878C5.47009 5.14136 5.70612 5.37747 5.70612 5.6687C5.70612 5.95994 5.47009 6.19605 5.17878 6.19605Z" fill="#8AC9FE"/>
<path d="M17.9995 6.19605H9.81445C9.52315 6.19605 9.28711 5.95994 9.28711 5.6687C9.28711 5.37747 9.52315 5.14136 9.81445 5.14136H17.9995C18.2908 5.14136 18.5269 5.37747 18.5269 5.6687C18.5269 5.95994 18.2908 6.19605 17.9995 6.19605Z" fill="#8AC9FE"/>
<path d="M17.9997 9.37256H3.87793C3.58662 9.37256 3.35059 9.13645 3.35059 8.84521C3.35059 8.55398 3.58662 8.31787 3.87793 8.31787H17.9997C18.291 8.31787 18.527 8.55398 18.527 8.84521C18.527 9.13645 18.291 9.37256 17.9997 9.37256Z" fill="#8AC9FE"/>
<path d="M15.6094 12.5491H3.87793C3.58662 12.5491 3.35059 12.313 3.35059 12.0217C3.35059 11.7305 3.58662 11.4944 3.87793 11.4944H15.6094C15.9007 11.4944 16.1367 11.7305 16.1367 12.0217C16.1367 12.313 15.9006 12.5491 15.6094 12.5491Z" fill="#8AC9FE"/>
<path d="M15.6094 15.7253H3.87793C3.58662 15.7253 3.35059 15.4892 3.35059 15.198C3.35059 14.9068 3.58662 14.6707 3.87793 14.6707H15.6094C15.9007 14.6707 16.1367 14.9068 16.1367 15.198C16.1367 15.4892 15.9006 15.7253 15.6094 15.7253Z" fill="#8AC9FE"/>
<path d="M17.1496 17.8769C17.1496 17.8669 17.15 17.8571 17.15 17.8472H13.0742C12.7829 17.8472 12.5469 18.0833 12.5469 18.3745C12.5469 18.6657 12.7829 18.9019 13.0742 18.9019H17.2329C17.1784 18.5681 17.1496 18.2258 17.1496 17.8769Z" fill="#8AC9FE"/>
<path d="M17.9868 21.0234H13.0742C12.7829 21.0234 12.5469 21.2595 12.5469 21.5508C12.5469 21.842 12.7829 22.0781 13.0742 22.0781H17.9998C18.2159 22.0781 18.4013 21.9481 18.4828 21.7621C18.301 21.5283 18.135 21.2816 17.9868 21.0234Z" fill="#8AC9FE"/>
<path d="M17.9998 25.2544H13.0742C12.7829 25.2544 12.5469 25.0183 12.5469 24.7271C12.5469 24.4358 12.7829 24.1997 13.0742 24.1997H17.9998C18.2911 24.1997 18.5272 24.4358 18.5272 24.7271C18.5272 25.0183 18.2911 25.2544 17.9998 25.2544Z" fill="#8AC9FE"/>
<path d="M33.211 4.30884H21.6619C21.2619 4.30884 20.9375 4.63312 20.9375 5.0332V12.0726C21.7192 11.7273 22.5831 11.5351 23.4911 11.5351C25.6953 11.5351 27.6402 12.6658 28.777 14.3772H33.2109C33.611 14.3772 33.9353 14.053 33.9353 13.6529V5.0332C33.9353 4.63312 33.611 4.30884 33.211 4.30884Z" fill="#FFD15B"/>
<path d="M33.2112 4.30884H30.1689C30.569 4.30884 30.8933 4.63312 30.8933 5.0332V13.6529C30.8933 14.053 30.569 14.3772 30.1689 14.3772H33.2112C33.6113 14.3772 33.9356 14.053 33.9356 13.6529V5.0332C33.9356 4.63312 33.6113 4.30884 33.2112 4.30884Z" fill="#FFC344"/>
<path d="M31.2222 7.49243H23.6514C23.3601 7.49243 23.124 7.25632 23.124 6.96509C23.124 6.67385 23.3601 6.43774 23.6514 6.43774H31.2222C31.5135 6.43774 31.7495 6.67385 31.7495 6.96509C31.7495 7.25632 31.5134 7.49243 31.2222 7.49243Z" fill="#ECA026"/>
<path d="M31.2222 9.87036H23.6514C23.3601 9.87036 23.124 9.63425 23.124 9.34302C23.124 9.05178 23.3601 8.81567 23.6514 8.81567H31.2222C31.5135 8.81567 31.7495 9.05178 31.7495 9.34302C31.7495 9.63425 31.5134 9.87036 31.2222 9.87036Z" fill="#ECA026"/>
<path d="M31.2218 12.2485H29.4443C29.153 12.2485 28.917 12.0124 28.917 11.7212C28.917 11.43 29.153 11.1938 29.4443 11.1938H31.2218C31.5131 11.1938 31.7491 11.43 31.7491 11.7212C31.7491 12.0124 31.513 12.2485 31.2218 12.2485Z" fill="#ECA026"/>
<path d="M29.2879 24.8354L30.7108 23.4126C30.7375 23.3859 30.7686 23.3653 30.8022 23.3509L28.4862 21.0349C28.0576 21.6482 27.5234 22.1823 26.9102 22.611L29.2265 24.9273C29.2406 24.8939 29.2608 24.8626 29.2879 24.8354Z" fill="#ACACAC"/>
<path d="M30.8018 23.3509L28.4858 21.0349C28.2805 21.3285 28.0505 21.6034 27.7998 21.8579L30.0324 24.0905L30.7103 23.4126C30.737 23.3859 30.7681 23.3653 30.8018 23.3509Z" fill="#9C9C9C"/>
<path d="M35.3942 29.5197C34.8599 30.054 33.9935 30.054 33.4592 29.5197L29.236 25.2965C29.0945 25.155 29.0945 24.9257 29.236 24.7843L30.6588 23.3615C30.8003 23.22 31.0296 23.22 31.171 23.3615L35.3942 27.5847C35.9286 28.119 35.9286 28.9853 35.3942 29.5197Z" fill="#838383"/>
<path d="M35.3944 27.5847L31.1713 23.3615C31.0298 23.22 30.8005 23.22 30.6591 23.3615L29.9922 24.0284L33.5485 27.5847C34.0828 28.119 34.0828 28.9853 33.5485 29.5197C33.5342 29.534 33.5187 29.5464 33.5039 29.5599C34.0409 30.0521 34.8744 30.0398 35.3944 29.5197C35.9288 28.9853 35.9288 28.119 35.3944 27.5847Z" fill="#5A5A5A"/>
<path d="M23.2869 23.8239C26.8282 23.8239 29.6989 20.9532 29.6989 17.4119C29.6989 13.8707 26.8282 11 23.2869 11C19.7457 11 16.875 13.8707 16.875 17.4119C16.875 20.9532 19.7457 23.8239 23.2869 23.8239Z" fill="#26A6FE"/>
<path d="M23.2866 11C22.8999 11 22.5212 11.0342 22.1533 11.0998C23.8731 11.4065 25.3544 12.3997 26.3067 13.7849C27.346 14.6518 28.0088 15.9558 28.0088 17.4119C28.0088 18.868 27.346 20.1719 26.3067 21.0388C25.3545 22.424 23.8732 23.4172 22.1533 23.724C22.5212 23.7896 22.8999 23.8238 23.2866 23.8238C26.8278 23.8238 29.6986 20.9531 29.6986 17.4119C29.6986 13.8707 26.8278 11 23.2866 11Z" fill="#0593FC"/>
<path d="M23.3199 13.25C25.6367 13.25 27.5148 15.1281 27.5148 17.4449C27.5148 19.7617 25.6367 21.6398 23.3199 21.6398C21.0031 21.6398 19.125 19.7617 19.125 17.4449C19.125 15.1281 21.0031 13.25 23.3199 13.25Z" fill="#05E39C"/>
<path d="M23.2867 13.217C22.8881 13.217 22.503 13.2739 22.1377 13.3777C23.8956 13.8775 25.1836 15.4938 25.1836 17.412C25.1836 19.3302 23.8956 20.9464 22.1377 21.4462C22.503 21.5501 22.8881 21.6069 23.2867 21.6069C25.6035 21.6069 27.4816 19.7288 27.4816 17.412C27.4816 15.0952 25.6035 13.217 23.2867 13.217Z" fill="#0ED290"/>
<path d="M23.2867 22.1342C20.6828 22.1342 18.5645 20.0158 18.5645 17.412C18.5645 14.8081 20.6828 12.6897 23.2867 12.6897C25.8905 12.6897 28.0089 14.8081 28.0089 17.412C28.0089 20.0158 25.8905 22.1342 23.2867 22.1342ZM23.2867 13.7445C21.2644 13.7445 19.6191 15.3897 19.6191 17.412C19.6191 19.4344 21.2644 21.0796 23.2867 21.0796C25.309 21.0796 26.9542 19.4344 26.9542 17.412C26.9542 15.3897 25.3089 13.7445 23.2867 13.7445Z" fill="#60B7FF"/>
<path d="M23.2152 18.875C23.1256 18.875 23.036 18.8367 22.9676 18.76L21.4776 17.0893C21.3408 16.9359 21.3408 16.6873 21.4776 16.5339C21.6144 16.3806 21.8361 16.3806 21.9729 16.5339L23.2152 17.9269L25.2771 15.615C25.4139 15.4617 25.6357 15.4617 25.7724 15.615C25.9092 15.7684 25.9092 16.017 25.7724 16.1704L23.4629 18.76C23.3945 18.8367 23.3049 18.875 23.2152 18.875Z" fill="white"/>
<path fill-rule="evenodd" clip-rule="evenodd" d="M8.89773 21.5341C8.89773 21.8179 8.68968 22.0455 8.43019 22.0455H8.19643C7.93695 22.0455 7.7289 21.8179 7.7289 21.5341L8.19643 20.5114H7.96266C7.83409 20.5114 7.7289 20.3963 7.7289 20.2557H7.49513V22.3011C7.59331 22.3011 7.7289 22.4162 7.7289 22.5568H7.96266C8.06084 22.5568 8.19643 22.6719 8.19643 22.8125H6.3263C6.3263 22.6719 6.46188 22.5568 6.56006 22.5568H6.79383C6.79383 22.4162 6.92942 22.3011 7.0276 22.3011H7.03461L7.0276 20.2557H6.79383C6.79383 20.3963 6.68864 20.5114 6.56006 20.5114H6.3263L6.79383 21.5341C6.79383 21.8179 6.58578 22.0455 6.3263 22.0455H6.09253C5.83305 22.0455 5.625 21.8179 5.625 21.5341L6.09253 20.5114H5.85877V20.2557H6.56006C6.56006 20.1151 6.66526 20 6.79383 20H7.7289C7.85747 20 7.96266 20.1151 7.96266 20.2557H8.66396V20.5114H8.43019L8.89773 21.5341ZM6.20942 20.767L5.85877 21.5341H6.56006L6.20942 20.767ZM8.66396 21.5341L8.31331 20.767L7.96266 21.5341H8.66396Z" fill="white"/>
</svg>
