<svg width="52" height="53" viewBox="0 0 52 53" fill="none" xmlns="http://www.w3.org/2000/svg">
<g filter="url(#filter0_d_1997_3154)">
<path d="M26.0725 39.8636C26.0725 38.272 26.0725 33.2924 26.0725 31.3223C26.0725 29.1454 27.9822 28.3601 27.9822 28.3601L33.1406 26.3603V24.7744H33.1408C32.1787 24.16 31.5989 23.1053 31.5717 21.9792C30.6648 22.1166 29.957 21.461 29.957 20.6584C29.957 20.2893 30.1243 19.9641 30.38 19.7273V18.0025C30.38 15.9302 32.0367 13.7659 34.6166 13.7659C34.6314 13.7659 34.646 13.767 34.6605 13.767V5.93536C34.6605 5.1427 34.0178 4.5 33.2252 4.5H15.5742L8.28125 11.793V39.0646C8.28125 39.8573 8.92395 40.5 9.71661 40.5H26.7089C26.3573 40.5 26.0725 40.2149 26.0725 39.8636Z" fill="#F0FCFF"/>
<path d="M10.4543 9.61987L8.28125 11.793V39.0646C8.28125 39.8573 8.92395 40.5 9.71661 40.5H10.4543V9.61987Z" fill="#D7ECFE"/>
<path d="M8.28125 11.793H14.1389C14.9318 11.793 15.5742 11.1506 15.5742 10.3576V4.5L8.28125 11.793Z" fill="#D7ECFE"/>
<path d="M15.5742 4.5L8.28125 11.793H10.4543L15.5742 6.6731V4.5Z" fill="#D7ECFE"/>
<path d="M34.6154 13.3313C32.0356 13.3313 29.9443 15.4228 29.9443 18.0027V19.9036C30.2563 19.6144 30.7592 19.457 31.1929 19.515V19.282C31.1929 19.0969 31.3509 18.9508 31.5343 18.9648C33.3402 19.0945 35.1194 18.5207 36.5092 17.6127C36.6389 17.5278 36.8108 17.549 36.9163 17.6624C38.1044 18.9395 38.0385 18.8901 38.0385 19.0568V19.5139C38.5137 19.4427 38.994 19.5897 39.2868 19.8618V18.0027C39.2868 15.4225 37.1956 13.3313 34.6154 13.3313Z" fill="#576574"/>
<path d="M32.1174 18.0027C32.1174 15.7969 33.6465 13.9496 35.702 13.4598C35.3532 13.3766 34.9898 13.3313 34.6154 13.3313C32.0356 13.3313 29.9443 15.4225 29.9443 18.0027V19.9036C30.2563 19.6144 30.7592 19.457 31.1929 19.515V19.282C31.1929 19.0969 31.3509 18.9508 31.5343 18.9648C31.7291 18.9788 31.9238 18.984 32.1174 18.9821V18.0027Z" fill="#3E4B5A"/>
<path d="M38.0881 19.33V21.9038C38.0881 21.9318 38.0868 21.9593 38.0859 21.987C38.997 22.1249 39.7103 21.4671 39.7103 20.6588C39.7103 19.8488 38.9962 19.194 38.0881 19.33Z" fill="#FFBEAB"/>
<path d="M31.1659 21.9211V19.3127C30.3619 19.2053 29.5215 19.8222 29.5215 20.6588C29.5215 21.477 30.243 22.1455 31.1681 22.0054C31.1672 21.9774 31.1659 21.9491 31.1659 21.9211Z" fill="#FFBEAB"/>
<path d="M39.2895 19.6843C38.9948 19.4074 38.5685 19.258 38.0881 19.33V21.9038C38.0881 21.9318 38.0868 21.9593 38.0859 21.987C38.568 22.0601 38.9945 21.9101 39.2895 21.633V19.6843Z" fill="#F7AF9F"/>
<path d="M31.1659 21.6615C30.8898 21.4108 30.7228 21.0521 30.7228 20.6585C30.7228 20.2764 30.8986 19.9403 31.1659 19.6977V19.3124C30.3619 19.2053 29.5215 19.8222 29.5215 20.6585C29.5215 21.477 30.243 22.1455 31.1681 22.0054C31.1672 21.9774 31.1659 21.9491 31.1659 21.9211V21.6615Z" fill="#F7AF9F"/>
<path d="M34.6653 25.2108C33.9108 25.2108 33.2475 25.0035 32.7051 24.6569V26.4778L34.6571 28.8871L36.6091 26.4778V24.6052C36.0559 24.9867 35.3866 25.2108 34.6653 25.2108Z" fill="#FFBEAB"/>
<path d="M34.8784 25.2036C34.8079 25.2079 34.737 25.211 34.6656 25.211C33.9108 25.211 33.2475 25.0036 32.7051 24.657V26.478L34.6571 28.8873L34.8784 28.614V25.2036Z" fill="#F7AF9F"/>
<path d="M41.7723 28.3601L36.6088 26.3604L34.6568 28.7697L32.7048 26.3604L27.5467 28.3601C27.5467 28.3601 25.6367 29.1451 25.6367 31.3223V39.8636C25.6367 40.2149 25.9218 40.5 26.2731 40.5H43.0457C43.3972 40.5 43.682 40.2149 43.682 39.8636C43.682 38.272 43.682 33.2924 43.682 31.3223C43.682 29.1451 41.7723 28.3601 41.7723 28.3601Z" fill="#BED8FB"/>
<path d="M27.8098 39.8637C27.8098 38.2723 27.8098 32.3507 27.8098 30.3808C27.8098 28.9479 28.6371 28.1179 29.2026 27.718L27.5467 28.3602C27.5467 28.3602 25.6367 29.1454 25.6367 31.3224V39.8637C25.6367 40.2152 25.9218 40.5001 26.2731 40.5001H28.4462C28.0949 40.5001 27.8098 40.215 27.8098 39.8637Z" fill="#9DC6FB"/>
<path d="M37.0141 30.0075L38.4736 27.0824L36.6092 26.3604L34.6572 28.7697L36.5603 30.1212C36.7144 30.2306 36.9295 30.1767 37.0141 30.0075Z" fill="#9DC6FB"/>
<path d="M32.3033 30.0075L30.8438 27.0824L32.7081 26.3604L34.6601 28.7697L32.757 30.1212C32.6029 30.2306 32.3876 30.1767 32.3033 30.0075Z" fill="#9DC6FB"/>
<path d="M34.6599 28.7712V28.7695L34.6588 28.7704L34.6577 28.7695V28.7712L33.2734 29.7542L33.9277 30.7388H35.3897L36.0442 29.7542L34.6599 28.7712Z" fill="#EE5253"/>
<path d="M36.6428 38.1405L35.3898 30.739H33.9278L32.6751 38.1405C32.6619 38.2358 32.6899 38.3328 32.7498 38.3984L34.6578 40.4976V40.5001L34.6589 40.4987L34.6603 40.5001V40.4976L36.5684 38.3984C36.628 38.3328 36.656 38.2358 36.6428 38.1405Z" fill="#FF6B6B"/>
<path d="M35.2013 29.6196L35.5281 29.3878L34.6599 28.7712V28.7695L34.6588 28.7704L34.6577 28.7695V28.7712L33.2734 29.7542L33.9277 30.7388H35.3897L35.5281 30.5309L35.1406 29.9475C35.0689 29.8399 35.0958 29.6946 35.2013 29.6196Z" fill="#D83941"/>
<path d="M34.4137 38.1405L35.5282 31.5556L35.3898 30.739H33.9278L32.6751 38.1405C32.6619 38.2358 32.6899 38.3328 32.7498 38.3984L34.6578 40.4976V40.5001L34.6589 40.4987L34.6603 40.5001V40.4976L35.5282 39.5426L34.4884 38.3984C34.4285 38.3328 34.4005 38.2361 34.4137 38.1405Z" fill="#EE5253"/>
<path d="M36.9169 17.4862C36.8114 17.3728 36.6395 17.3519 36.5098 17.4365C35.1201 18.3445 33.282 18.9183 31.4762 18.7887C31.293 18.7747 31.1348 18.9208 31.1348 19.1059V21.8964C31.1348 23.6902 32.5402 25.3283 34.6658 25.3283C36.5582 25.3283 38.0976 23.7888 38.0976 21.8964V18.8807C38.0976 18.714 38.1048 18.7634 36.9169 17.4862Z" fill="#FFCDBF"/>
<path d="M33.3079 21.8966V18.6917C32.7061 18.7955 32.0892 18.8326 31.4759 18.7886C31.2927 18.7749 31.1348 18.921 31.1348 19.1058V21.8966C31.1348 23.6902 32.5402 25.3282 34.6658 25.3282C35.0324 25.3282 35.3854 25.27 35.7169 25.1629C34.2329 24.7042 33.3079 23.3515 33.3079 21.8966Z" fill="#FFBEAB"/>
<path d="M29.4313 40.4999V32.0706C29.4313 31.7707 29.1882 31.5273 28.888 31.5273C28.5881 31.5273 28.3447 31.7704 28.3447 32.0706V40.4999H29.4313Z" fill="#9DC6FB"/>
<path d="M40.9762 40.4999V32.0706C40.9762 31.7707 40.7331 31.5273 40.4329 31.5273C40.133 31.5273 39.8896 31.7704 39.8896 32.0706V40.4999H40.9762Z" fill="#9DC6FB"/>
<path d="M16.1693 15.7693H13.4914C13.111 15.7693 12.7998 16.0805 12.7998 16.4609V19.1388C12.7998 19.5189 13.111 19.8301 13.4914 19.8301H16.1693C16.5497 19.8301 16.8606 19.5189 16.8606 19.1388V16.4609C16.8609 16.0805 16.5497 15.7693 16.1693 15.7693Z" fill="#E4EAF8"/>
<path d="M16.1693 22.9368H13.4914C13.111 22.9368 12.7998 23.2477 12.7998 23.6281V26.306C12.7998 26.6861 13.111 26.9976 13.4914 26.9976H16.1693C16.5497 26.9976 16.8606 26.6861 16.8606 26.306V23.6281C16.8609 23.2477 16.5497 22.9368 16.1693 22.9368Z" fill="#E4EAF8"/>
<path d="M16.1693 30.104H13.4914C13.111 30.104 12.7998 30.4152 12.7998 30.7953V33.4732C12.7998 33.8536 13.111 34.1648 13.4914 34.1648H16.1693C16.5497 34.1648 16.8606 33.8536 16.8606 33.4732V30.7953C16.8609 30.4152 16.5497 30.104 16.1693 30.104Z" fill="#E4EAF8"/>
<path d="M14.9732 19.1388V16.4609C14.9732 16.0805 15.2844 15.7693 15.6645 15.7693H13.4914C13.111 15.7693 12.7998 16.0805 12.7998 16.4609V19.1388C12.7998 19.5189 13.111 19.8301 13.4914 19.8301H15.6645C15.2844 19.8301 14.9732 19.5189 14.9732 19.1388Z" fill="#D8DCE5"/>
<path d="M14.9732 26.306V23.6281C14.9732 23.2477 15.2844 22.9368 15.6645 22.9368H13.4914C13.111 22.9368 12.7998 23.2477 12.7998 23.6281V26.306C12.7998 26.6864 13.111 26.9976 13.4914 26.9976H15.6645C15.2844 26.9976 14.9732 26.6864 14.9732 26.306Z" fill="#D8DCE5"/>
<path d="M14.9732 33.4732V30.7953C14.9732 30.4152 15.2844 30.104 15.6645 30.104H13.4914C13.111 30.104 12.7998 30.4152 12.7998 30.7953V33.4732C12.7998 33.8536 13.111 34.1648 13.4914 34.1648H15.6645C15.2844 34.1648 14.9732 33.8536 14.9732 33.4732Z" fill="#D8DCE5"/>
<path d="M26.8448 17.1144H20.6898C20.3898 17.1144 20.1465 16.8713 20.1465 16.5711C20.1465 16.2712 20.3896 16.0278 20.6898 16.0278H26.8448C27.1448 16.0278 27.3881 16.2709 27.3881 16.5711C27.3881 16.8713 27.1448 17.1144 26.8448 17.1144Z" fill="#BED8FB"/>
<path d="M26.8448 19.5714H20.6898C20.3898 19.5714 20.1465 19.3281 20.1465 19.0279C20.1465 18.728 20.3896 18.4846 20.6898 18.4846H26.8448C27.1448 18.4846 27.3881 18.728 27.3881 19.0279C27.3881 19.3281 27.1448 19.5714 26.8448 19.5714Z" fill="#BED8FB"/>
<path d="M26.8448 24.2819H20.6898C20.3898 24.2819 20.1465 24.0385 20.1465 23.7383C20.1465 23.4384 20.3896 23.1951 20.6898 23.1951H26.8448C27.1448 23.1951 27.3881 23.4384 27.3881 23.7383C27.3881 24.0385 27.1448 24.2819 26.8448 24.2819Z" fill="#BED8FB"/>
<path d="M26.8448 26.7387H20.6898C20.3898 26.7387 20.1465 26.4953 20.1465 26.1954C20.1465 25.8952 20.3896 25.6519 20.6898 25.6519H26.8448C27.1448 25.6519 27.3881 25.8952 27.3881 26.1954C27.3881 26.4953 27.1448 26.7387 26.8448 26.7387Z" fill="#BED8FB"/>
<path d="M23.5863 31.4491H20.6898C20.3896 31.4491 20.1465 31.2058 20.1465 30.9059C20.1465 30.6057 20.3896 30.3623 20.6898 30.3623H23.5863C23.8862 30.3623 24.1296 30.6057 24.1296 30.9059C24.1296 31.2058 23.8862 31.4491 23.5863 31.4491Z" fill="#BED8FB"/>
<path d="M23.5863 33.9059H20.6898C20.3896 33.9059 20.1465 33.6628 20.1465 33.3626C20.1465 33.0627 20.3896 32.8193 20.6898 32.8193H23.5863C23.8862 32.8193 24.1296 33.0624 24.1296 33.3626C24.1296 33.6625 23.8862 33.9059 23.5863 33.9059Z" fill="#BED8FB"/>
<path d="M15.4078 18.9402C15.2689 18.9402 15.1299 18.8871 15.0236 18.7811L13.8956 17.6528C13.6833 17.4408 13.6833 17.0966 13.8956 16.8846C14.1076 16.6723 14.4517 16.6723 14.6638 16.8846L15.4078 17.6287L17.3711 15.6651C17.5834 15.4531 17.9273 15.4531 18.1396 15.6651C18.3516 15.8774 18.3516 16.2213 18.1396 16.4336L15.7921 18.7809C15.6861 18.8871 15.5468 18.9402 15.4078 18.9402Z" fill="#05E39C"/>
<path d="M15.4078 26.1074C15.2689 26.1074 15.1299 26.0544 15.0236 25.9484L13.8956 24.8201C13.6833 24.608 13.6833 24.2639 13.8956 24.0518C14.1076 23.8395 14.4517 23.8395 14.6638 24.0518L15.4078 24.7959L17.3711 22.8324C17.5834 22.6203 17.9273 22.6203 18.1396 22.8324C18.3516 23.0447 18.3516 23.3885 18.1396 23.6009L15.7921 25.9481C15.6861 26.0544 15.5468 26.1074 15.4078 26.1074Z" fill="#05E39C"/>
<path d="M15.4078 33.2746C15.2639 33.2746 15.1255 33.2175 15.0236 33.1156L13.8956 31.9873C13.6833 31.7752 13.6833 31.4311 13.8956 31.2191C14.1076 31.007 14.4517 31.007 14.6638 31.2191L15.4078 31.9631L17.3711 29.9998C17.5834 29.7878 17.9273 29.7878 18.1396 29.9998C18.3516 30.2119 18.3516 30.556 18.1396 30.7681L15.7921 33.1156C15.6902 33.2175 15.552 33.2746 15.4078 33.2746Z" fill="#05E39C"/>
</g>
<defs>
<filter id="filter0_d_1997_3154" x="0" y="0.5" width="52" height="52" filterUnits="userSpaceOnUse" color-interpolation-filters="sRGB">
<feFlood flood-opacity="0" result="BackgroundImageFix"/>
<feColorMatrix in="SourceAlpha" type="matrix" values="0 0 0 0 0 0 0 0 0 0 0 0 0 0 0 0 0 0 127 0" result="hardAlpha"/>
<feOffset dy="4"/>
<feGaussianBlur stdDeviation="4"/>
<feComposite in2="hardAlpha" operator="out"/>
<feColorMatrix type="matrix" values="0 0 0 0 0 0 0 0 0 0 0 0 0 0 0 0 0 0 0.04 0"/>
<feBlend mode="normal" in2="BackgroundImageFix" result="effect1_dropShadow_1997_3154"/>
<feBlend mode="normal" in="SourceGraphic" in2="effect1_dropShadow_1997_3154" result="shape"/>
</filter>
</defs>
</svg>
