<svg width="32" height="32" viewBox="0 0 32 32" fill="none" xmlns="http://www.w3.org/2000/svg">
<path d="M29.9871 8.03027C26.2553 15.3432 22.3353 22.5644 18.2388 29.682C17.9541 30.1762 17.3424 30.3597 16.8647 30.0962L6.76353 24.4938C6.27647 24.2232 6.11647 23.5879 6.40588 23.0844C10.4859 15.995 14.3871 8.80439 18.1047 1.52203C18.3729 0.994976 19.0059 0.785564 19.5 1.06086L29.6012 6.66321C30.0694 6.92439 30.2412 7.52909 29.9871 8.03027Z" fill="#CEDEF5"/>
<path d="M6.76036 24.491L8.41212 25.4063C12.8262 17.6887 17.0662 9.87458 21.1298 1.96634L19.4992 1.06281C19.0051 0.787517 18.3745 0.996929 18.1062 1.52399C14.3862 8.80634 10.4827 15.9969 6.40506 23.084C6.1133 23.5852 6.27565 24.2205 6.76036 24.491Z" fill="#5983D6"/>
<path d="M17.2077 13.8176C17.2077 13.8176 17.2077 13.8152 17.2101 13.8152L21.9654 5.01051C22.0336 4.8858 21.9865 4.73051 21.8618 4.66227C21.7371 4.59404 21.5842 4.6411 21.516 4.76345C21.516 4.76345 21.516 4.7658 21.5136 4.7658L16.756 13.5705C16.6877 13.6952 16.7348 13.8505 16.8595 13.9187C16.9842 13.987 17.1395 13.9423 17.2077 13.8176Z" fill="#94959A"/>
<path d="M18.9905 14.8176C18.9905 14.8176 18.9905 14.8152 18.9929 14.8152L23.7482 6.01051C23.8164 5.8858 23.7693 5.73051 23.6446 5.66227C23.5199 5.59404 23.367 5.6411 23.2988 5.76345C23.2988 5.76345 23.2988 5.7658 23.2964 5.7658L18.5411 14.5705C18.4729 14.6952 18.5199 14.8505 18.6446 14.9187C18.7693 14.987 18.9223 14.9399 18.9905 14.8176Z" fill="#94959A"/>
<path d="M20.7761 15.8185C20.7761 15.8185 20.7761 15.8161 20.7784 15.8161L25.5337 7.01142C25.602 6.88671 25.5549 6.73142 25.4302 6.66318C25.3055 6.5973 25.1525 6.64201 25.0843 6.76436C25.0843 6.76436 25.0843 6.76671 25.082 6.76671L20.3243 15.5714C20.2561 15.6961 20.3031 15.8514 20.4278 15.9197C20.5525 15.9855 20.7078 15.9408 20.7761 15.8185Z" fill="#94959A"/>
<path d="M22.5593 16.8146C22.5593 16.8146 22.5593 16.8122 22.5616 16.8122L27.3169 8.00751C27.3852 7.88281 27.3381 7.72751 27.2134 7.65928C27.0887 7.59339 26.9357 7.6381 26.8675 7.76045C26.8675 7.76045 26.8675 7.76281 26.8652 7.76281L22.1075 16.5675C22.0393 16.6922 22.0863 16.8475 22.211 16.9157C22.3357 16.984 22.491 16.9393 22.5593 16.8146Z" fill="#94959A"/>
<path d="M16.1835 15.8232C16.2517 15.7009 16.2094 15.5456 16.0847 15.475C15.9623 15.4044 15.8047 15.4491 15.7341 15.5715L14.2376 18.2115C14.1694 18.3315 14.2117 18.4915 14.3341 18.562C14.4564 18.6326 14.6141 18.5879 14.6847 18.4656L16.1835 15.8232C16.1835 15.8256 16.1835 15.8256 16.1835 15.8232Z" fill="#94959A"/>
<path d="M17.9862 16.79C18.0544 16.6677 18.012 16.5124 17.8873 16.4418C17.765 16.3712 17.6073 16.4159 17.5367 16.5383L16.0403 19.1783V19.1806C15.972 19.303 16.0144 19.4583 16.1391 19.5288C16.2614 19.5994 16.4191 19.5547 16.4897 19.4324L17.9862 16.79Z" fill="#94959A"/>
<path d="M19.7908 17.7549C19.8591 17.6325 19.8167 17.4772 19.692 17.4066C19.5697 17.336 19.412 17.3807 19.3414 17.5031L17.845 20.1431V20.1455C17.7767 20.2678 17.8191 20.4231 17.9438 20.4937C18.0661 20.5643 18.2238 20.5196 18.2944 20.3972L19.7908 17.7549Z" fill="#94959A"/>
<path d="M21.5936 18.7197C21.6618 18.5974 21.6195 18.4421 21.4948 18.3715C21.3724 18.3009 21.2148 18.3456 21.1442 18.4679L19.6477 21.1079V21.1103C19.5795 21.2327 19.6218 21.3879 19.7465 21.4585C19.8689 21.5291 20.0265 21.4844 20.0971 21.3621L21.5936 18.7197Z" fill="#94959A"/>
<path opacity="0.05" d="M7.08479 23.9074L17.186 29.5098C17.346 29.5992 17.5577 29.5262 17.6589 29.3498C18.9507 27.1003 20.2448 24.8156 21.5013 22.5498C24.2048 17.6768 26.8566 12.6862 29.3907 7.72387C29.4824 7.54505 29.426 7.32858 29.273 7.24387L28.673 6.91211C26.2048 11.7474 23.6166 16.5992 20.9883 21.338C20.1483 22.8533 19.2942 24.3756 18.433 25.8886C17.7154 27.1474 16.1366 27.6203 14.8448 26.9615L7.19303 23.0439C7.12008 23.1686 7.05185 23.2886 6.98126 23.4133C6.87538 23.6015 6.92714 23.8203 7.08479 23.9074Z" fill="black"/>
<path d="M14.3323 12.3898C14.3323 12.3898 14.3323 12.3875 14.3347 12.3875L19.09 3.58277C19.1582 3.45807 19.1111 3.30277 18.9864 3.23454C18.8617 3.1663 18.7088 3.21336 18.6406 3.33572C18.6406 3.33572 18.6406 3.33807 18.6382 3.33807L13.8829 12.1428C13.8147 12.2675 13.8617 12.4228 13.9864 12.491C14.1111 12.5592 14.2641 12.5145 14.3323 12.3898Z" fill="white"/>
<path d="M13.2753 14.2119C13.3435 14.0895 13.3012 13.9342 13.1765 13.8637C13.0541 13.7931 12.8965 13.8378 12.8259 13.9601L11.3294 16.6001C11.2612 16.7201 11.3035 16.8801 11.4259 16.9507C11.5482 17.0213 11.7059 16.9766 11.7765 16.8542L13.2753 14.2119Z" fill="white"/>
<path d="M10.6894 18.874C10.7576 18.7517 10.7152 18.5964 10.5905 18.5258C10.4682 18.4552 10.3105 18.4999 10.2399 18.6222L8.74348 21.2622C8.67524 21.3822 8.71759 21.5422 8.83995 21.6128C8.9623 21.6834 9.11995 21.6387 9.19053 21.5164L10.6894 18.874C10.687 18.8764 10.687 18.8764 10.6894 18.874Z" fill="white"/>
<path opacity="0.15" d="M6.76036 24.4906L7.09447 24.6765C8.598 23.7447 10.0945 22.8083 11.4498 21.6741C12.198 21.0506 12.9557 20.3447 13.9133 20.1635C15.4309 19.8788 16.8757 21.0059 18.4192 21.0435C19.8733 21.0765 21.1957 20.1165 22.0451 18.9353C22.8921 17.7494 23.3721 16.3518 23.9509 15.0177C24.5274 13.6812 25.2639 12.3471 26.4521 11.5094C27.0615 11.0788 27.8192 10.8177 28.5627 10.7918C29.038 9.87178 29.5157 8.95178 29.9839 8.02943C30.2404 7.52825 30.0662 6.9259 29.5957 6.66472L19.4992 1.06237C19.0051 0.787075 18.3745 0.99884 18.1062 1.52355C14.3862 8.8059 10.4827 15.9941 6.40506 23.0812C6.1133 23.5871 6.27565 24.22 6.76036 24.4906Z" fill="white"/>
<path opacity="0.15" d="M9.19141 18.1777C11.2926 16.6812 13.8902 15.8224 16.3914 15.053C17.2761 14.7824 18.1938 14.493 18.8738 13.86C19.9632 12.8435 20.2055 11.1424 21.3114 10.1377C22.4173 9.1306 24.0691 9.0906 25.4902 8.6106C26.8079 8.16354 27.9608 7.31178 28.8973 6.27413L19.4996 1.06237C19.0055 0.787075 18.3749 0.99884 18.1067 1.52355C15.2408 7.13296 12.2714 12.6835 9.19141 18.1777Z" fill="white"/>
<path opacity="0.15" d="M6.76036 24.4906L12.3462 27.5894C12.3133 26.9776 12.3604 26.3565 12.4804 25.7565C12.7745 24.2718 13.4827 22.8976 14.3627 21.6694C15.0168 20.7518 15.7886 19.867 16.0427 18.7706C16.4286 17.1141 15.5368 15.427 15.5909 13.7282C15.6262 12.5941 16.078 11.5188 16.4239 10.4365C17.1909 8.00352 17.4121 5.4647 17.398 2.90234C13.8945 9.71411 10.2262 16.4412 6.40506 23.0812C6.1133 23.587 6.27565 24.22 6.76036 24.4906Z" fill="white"/>
<g clip-path="url(#clip0_1945_2660)">
<path d="M2.21631 30.5883H16.3303C17.3992 30.5883 18.2657 29.6439 18.2657 28.4275V10.7742C18.2657 9.79432 17.3992 9 16.3303 9H2.21631C1.94908 9 1.73242 9.1986 1.73242 9.44357V29.7581C1.73247 30.003 1.94908 30.5883 2.21631 30.5883Z" fill="#CC4C61"/>
<path d="M16.3303 30.2019H2.21631C1.94908 30.2019 1.73242 30.0033 1.73242 29.7583V30.5568C1.73242 30.8017 1.94908 31.0003 2.21631 31.0003H16.3303C17.3992 31.0003 18.2658 30.206 18.2658 29.2261V28.4277C18.2658 29.4076 17.3992 30.2019 16.3303 30.2019Z" fill="#C23756"/>
<path d="M14.8018 26.3333C14.8018 26.1492 14.639 26 14.4382 26H5.55892C5.35806 26 5.19531 26.1492 5.19531 26.3333C5.19531 26.5174 5.35811 26.6666 5.55892 26.6666H14.4382C14.639 26.6666 14.8018 26.5174 14.8018 26.3333Z" fill="#EDF3FC"/>
<path d="M6.86752 28.1035C6.66666 28.1035 6.50391 28.2527 6.50391 28.4368C6.50391 28.6209 6.66666 28.7701 6.86752 28.7701H13.1288C13.3296 28.7701 13.4924 28.6209 13.4924 28.4368C13.4924 28.2527 13.3296 28.1035 13.1288 28.1035H6.86752Z" fill="#EDF3FC"/>
<mask id="mask0_1945_2660" style="mask-type:luminance" maskUnits="userSpaceOnUse" x="4" y="11" width="12" height="16">
<path d="M4.75 11H15.25V26.75H4.75V11Z" fill="white"/>
<path d="M10.0008 17.3004C10.8706 17.3004 11.5758 16.5952 11.5758 15.7254C11.5758 14.8555 10.8706 14.1504 10.0008 14.1504C9.13093 14.1504 8.42578 14.8555 8.42578 15.7254C8.42578 16.5952 9.13093 17.3004 10.0008 17.3004Z" fill="black"/>
<path d="M10.0008 20.8043C10.1458 20.8043 10.2633 20.6868 10.2633 20.5418C10.2633 20.3968 10.1458 20.2793 10.0008 20.2793C9.85581 20.2793 9.73828 20.3968 9.73828 20.5418C9.73828 20.6868 9.85581 20.8043 10.0008 20.8043Z" fill="black"/>
<path d="M10.0008 22.1969C10.1458 22.1969 10.2633 22.0793 10.2633 21.9344C10.2633 21.7894 10.1458 21.6719 10.0008 21.6719C9.85581 21.6719 9.73828 21.7894 9.73828 21.9344C9.73828 22.0793 9.85581 22.1969 10.0008 22.1969Z" fill="black"/>
<path d="M10.0009 19.7676C10.2063 19.7676 10.4033 19.8492 10.5485 19.9944C10.6937 20.1396 10.7753 20.3366 10.7753 20.542C10.7753 20.7473 10.6937 20.9443 10.5485 21.0895C10.4033 21.2347 10.2063 21.3163 10.0009 21.3163C9.83733 21.3163 9.68043 21.3813 9.56474 21.497C9.44905 21.6127 9.38406 21.7696 9.38406 21.9332C9.38406 22.0968 9.44905 22.2537 9.56474 22.3694C9.68043 22.4851 9.83733 22.5501 10.0009 22.5501V22.7076C9.79556 22.7076 9.5986 22.626 9.45337 22.4808C9.30815 22.3355 9.22656 22.1386 9.22656 21.9332C9.22656 21.7278 9.30815 21.5309 9.45337 21.3856C9.5986 21.2404 9.79556 21.1588 10.0009 21.1588C10.1645 21.1588 10.3214 21.0938 10.4371 20.9781C10.5528 20.8625 10.6178 20.7056 10.6178 20.542C10.6178 20.3783 10.5528 20.2214 10.4371 20.1058C10.3214 19.9901 10.1645 19.9251 10.0009 19.9251V19.7676Z" fill="black"/>
</mask>
<g mask="url(#mask0_1945_2660)">
<path d="M10.0004 17.825C10.7978 17.825 11.4441 17.1786 11.4441 16.3812C11.4441 15.5839 10.7978 14.9375 10.0004 14.9375C9.20303 14.9375 8.55664 15.5839 8.55664 16.3812C8.55664 17.1786 9.20303 17.825 10.0004 17.825Z" fill="#F1CD65"/>
</g>
<path d="M9.99922 17.0375C10.5791 17.0375 11.0492 16.5674 11.0492 15.9875C11.0492 15.4076 10.5791 14.9375 9.99922 14.9375C9.41932 14.9375 8.94922 15.4076 8.94922 15.9875C8.94922 16.5674 9.41932 17.0375 9.99922 17.0375Z" fill="#F1CD65"/>
<path d="M10.1111 12.5745C9.98066 12.6337 9.93191 12.7405 9.92141 12.8468C9.91485 12.9363 9.95436 13.0371 9.9583 13.1247C9.9583 13.2753 9.80242 13.3249 9.80242 13.5399C9.80242 13.6138 9.87067 13.6953 9.87067 13.887C9.85886 13.9877 9.80269 14.0104 9.73942 14.0183C9.70461 14.0183 9.67123 14.0045 9.64662 13.9799C9.622 13.9552 9.60817 13.9219 9.60817 13.887C9.60827 13.8534 9.62128 13.8211 9.64453 13.7967C9.64867 13.7921 9.65315 13.7877 9.65792 13.7836C9.68784 13.7534 9.72892 13.7418 9.72866 13.6621C9.72866 13.6211 9.70215 13.5839 9.67682 13.5114C9.65293 13.441 9.67025 13.3234 9.72709 13.254C9.63521 13.2894 9.57859 13.3775 9.54971 13.4565C9.51926 13.5536 9.54578 13.6096 9.50404 13.6903C9.47858 13.7425 9.44826 13.7642 9.41951 13.8077C9.38552 13.8553 9.34562 13.9664 9.34562 14.018C9.34562 14.192 9.41476 14.3589 9.53783 14.482C9.6609 14.6051 9.82782 14.6742 10.0019 14.6742C10.1759 14.6742 10.3428 14.6051 10.4659 14.482C10.589 14.3589 10.6581 14.192 10.6581 14.018C10.6581 13.9664 10.6187 13.8553 10.5848 13.8077C10.556 13.7642 10.5252 13.7425 10.4997 13.6903C10.4585 13.6096 10.485 13.5536 10.4546 13.4565C10.4257 13.3775 10.369 13.2894 10.2772 13.254C10.334 13.3234 10.3513 13.441 10.3274 13.5114C10.302 13.5838 10.2752 13.6211 10.2752 13.6621C10.2752 13.7418 10.316 13.7534 10.3459 13.7836C10.3507 13.7877 10.3552 13.7921 10.3593 13.7967C10.3826 13.8211 10.3956 13.8534 10.3957 13.887C10.3957 13.9219 10.3818 13.9552 10.3572 13.9799C10.3326 14.0045 10.2992 14.0183 10.2644 14.0183C10.1918 14.0091 10.1397 13.9752 10.1332 13.887C10.1332 13.6344 10.2413 13.6182 10.2413 13.4313C10.2413 13.1643 10.0019 13.0379 10.0019 12.8427C10.0019 12.7765 10.0174 12.6638 10.1111 12.5742L10.1111 12.5745ZM7.11328 18.087H8.42578V24.387H7.11328V18.087ZM11.5758 18.087H12.8883V24.387H11.5758V18.087ZM8.68828 18.087H11.3133L10.0008 18.8745L8.68828 18.087ZM8.68828 19.137H11.3133V19.662H8.68828V19.137ZM8.68828 22.812H11.3133V23.337H8.68828V22.812ZM8.68828 23.5995H11.3133L10.0008 24.387L8.68828 23.5995Z" fill="#F1CD65"/>
<mask id="mask1_1945_2660" style="mask-type:luminance" maskUnits="userSpaceOnUse" x="4" y="11" width="12" height="16">
<path d="M4.75 11H15.25V26.75H4.75V11Z" fill="white"/>
<path d="M10.0008 17.3004C10.8706 17.3004 11.5758 16.5952 11.5758 15.7254C11.5758 14.8555 10.8706 14.1504 10.0008 14.1504C9.13093 14.1504 8.42578 14.8555 8.42578 15.7254C8.42578 16.5952 9.13093 17.3004 10.0008 17.3004Z" fill="black"/>
<path d="M10.0008 20.8043C10.1458 20.8043 10.2633 20.6868 10.2633 20.5418C10.2633 20.3968 10.1458 20.2793 10.0008 20.2793C9.85581 20.2793 9.73828 20.3968 9.73828 20.5418C9.73828 20.6868 9.85581 20.8043 10.0008 20.8043Z" fill="black"/>
<path d="M10.0008 22.1969C10.1458 22.1969 10.2633 22.0793 10.2633 21.9344C10.2633 21.7894 10.1458 21.6719 10.0008 21.6719C9.85581 21.6719 9.73828 21.7894 9.73828 21.9344C9.73828 22.0793 9.85581 22.1969 10.0008 22.1969Z" fill="black"/>
<path d="M10.0009 19.7676C10.2063 19.7676 10.4033 19.8492 10.5485 19.9944C10.6937 20.1396 10.7753 20.3366 10.7753 20.542C10.7753 20.7473 10.6937 20.9443 10.5485 21.0895C10.4033 21.2347 10.2063 21.3163 10.0009 21.3163C9.83733 21.3163 9.68043 21.3813 9.56474 21.497C9.44905 21.6127 9.38406 21.7696 9.38406 21.9332C9.38406 22.0968 9.44905 22.2537 9.56474 22.3694C9.68043 22.4851 9.83733 22.5501 10.0009 22.5501V22.7076C9.79556 22.7076 9.5986 22.626 9.45337 22.4808C9.30815 22.3355 9.22656 22.1386 9.22656 21.9332C9.22656 21.7278 9.30815 21.5309 9.45337 21.3856C9.5986 21.2404 9.79556 21.1588 10.0009 21.1588C10.1645 21.1588 10.3214 21.0938 10.4371 20.9781C10.5528 20.8625 10.6178 20.7056 10.6178 20.542C10.6178 20.3783 10.5528 20.2214 10.4371 20.1058C10.3214 19.9901 10.1645 19.9251 10.0009 19.9251V19.7676Z" fill="black"/>
</mask>
<g mask="url(#mask1_1945_2660)">
<path d="M10 22.5508C10.7249 22.5508 11.3125 21.9632 11.3125 21.2383C11.3125 20.5134 10.7249 19.9258 10 19.9258C9.27513 19.9258 8.6875 20.5134 8.6875 21.2383C8.6875 21.9632 9.27513 22.5508 10 22.5508Z" fill="#F1CD65"/>
</g>
</g>
<path d="M25.9897 21.7295C25.6956 22.7716 25.185 23.7437 24.7991 24.7587C24.4156 25.7737 24.152 26.8721 24.3756 27.9299H21.4532C21.6767 26.8721 21.4132 25.7737 21.0297 24.7587C20.6438 23.7437 20.1332 22.7716 19.8391 21.7295C19.545 20.6875 19.4862 19.5349 19.9803 18.565C20.4062 17.735 21.7991 17.002 22.912 17.002C24.0367 17.002 25.3473 17.5974 25.8438 18.565C26.3426 19.5349 26.2838 20.6875 25.9897 21.7295Z" fill="#EF8E49"/>
<path opacity="0.1" d="M25.6932 21.7521C25.5074 22.4084 25.2415 23.0309 24.9544 23.6873C24.7944 24.0594 24.6274 24.4474 24.4791 24.8353C24.0415 25.9969 23.8674 26.9668 23.9544 27.8397H23.3238C23.2391 26.9668 23.4109 25.9969 23.8485 24.8353C23.9968 24.4474 24.1638 24.0594 24.3262 23.6873C24.6109 23.0309 24.8768 22.4084 25.0626 21.7521C25.2909 20.9423 25.4556 19.7717 24.945 18.7703C24.5779 18.0575 23.6179 17.5027 22.625 17.4012C22.7285 17.3876 22.8297 17.3809 22.9262 17.3809C24.0297 17.3809 25.1685 17.9786 25.5756 18.7703C26.0862 19.7717 25.9215 20.9446 25.6932 21.7521Z" fill="black"/>
<path opacity="0.1" d="M25.9906 21.7298C25.8024 22.3997 25.5248 23.0403 25.2495 23.6808C25.2095 23.6493 25.1671 23.6245 25.1224 23.6019C24.3695 23.1982 23.3506 23.3989 22.6636 22.8959C22.2 22.5553 22.0071 21.9689 21.9624 21.4118C21.9153 20.8524 21.9906 20.2908 21.9295 19.7314C21.8471 18.9488 21.4965 18.2067 20.9883 17.5864C21.5695 17.2346 22.2871 17 22.9153 17C24.0424 17 25.3506 17.5955 25.8471 18.5653C26.3436 19.5352 26.2848 20.6878 25.9906 21.7298Z" fill="white"/>
<path opacity="0.1" d="M26.0708 19.127C25.5767 19.5239 25.085 19.9186 24.5908 20.3134C24.3532 20.5051 24.1061 20.7058 23.9908 20.981C23.8097 21.4095 23.9838 21.8922 24.0332 22.3523C24.0944 22.941 23.932 23.5478 23.5838 24.0372C23.3038 24.4297 22.9014 24.759 22.7626 25.2169C22.6544 25.5665 22.7155 25.9364 22.7273 26.2995C22.7438 26.8566 22.6261 27.4182 22.3955 27.9302H21.4591C21.6826 26.8724 21.4191 25.774 21.0355 24.759C20.6497 23.744 20.1391 22.7719 19.845 21.7298C19.5508 20.6878 19.492 19.5352 19.9861 18.5653C20.412 17.7353 21.805 17 22.9179 17C24.045 17 25.3532 17.5955 25.8497 18.5653C25.9414 18.7458 26.0144 18.9352 26.0708 19.127Z" fill="white"/>
<path opacity="0.1" d="M24.1171 17.2094C24.0301 17.6447 23.943 18.0822 23.856 18.5198C23.743 19.0814 23.6089 19.6792 23.1877 20.0851C22.8207 20.437 22.2748 20.5971 21.9571 20.9919C21.6371 21.3933 21.6254 21.9505 21.7242 22.4467C21.8254 22.9429 22.0254 23.4211 22.0771 23.924C22.1524 24.6481 21.8795 25.3788 21.3901 25.9337C21.3007 25.5367 21.1713 25.1443 21.0277 24.7631C20.6418 23.7481 20.1313 22.776 19.8371 21.7339C19.543 20.6919 19.4842 19.5393 19.9783 18.5694C20.4042 17.7394 21.7971 17.0041 22.9101 17.0041C23.3077 16.9996 23.7218 17.0718 24.1171 17.2094Z" fill="white"/>
<path d="M28.9933 29.125L16.758 29.1701C16.6239 29.1701 16.5156 29.2739 16.5156 29.4024V30.2843C16.5156 30.6791 16.8497 30.9993 17.2639 30.9993L28.4944 30.9587C28.9039 30.9565 29.2356 30.6385 29.2356 30.2437V29.3573C29.238 29.2288 29.1274 29.125 28.9933 29.125Z" fill="#404042"/>
<path d="M15.6653 29.9238C15.6465 29.696 15.6418 29.4659 15.6512 29.2381C15.6818 28.451 16.3594 27.8262 17.1806 27.8262H28.5712C29.3947 27.8262 30.0724 28.4487 30.1006 29.2381C30.11 29.4659 30.1053 29.696 30.0865 29.9238C30.0677 30.1606 29.863 30.3433 29.6159 30.3433H16.1359C15.8888 30.3433 15.6841 30.1584 15.6653 29.9238Z" fill="#FFDF18"/>
<path opacity="0.1" d="M30.0914 29.8407C29.3173 29.4166 28.402 29.2294 27.515 29.3354C26.9008 29.4098 26.2867 29.6128 25.6797 29.5046C25.0303 29.3895 24.5103 28.9384 23.9126 28.6655C22.4256 27.9866 20.6726 28.4738 19.0279 28.3678C18.2538 28.3182 17.5103 28.1355 16.7832 27.8761C16.9103 27.8423 17.0444 27.8242 17.1808 27.8242H28.5714C29.3926 27.8242 30.0703 28.449 30.1008 29.2362C30.1103 29.4392 30.1056 29.6399 30.0914 29.8407Z" fill="white"/>
<path opacity="0.1" d="M28.91 27.8626C28.6347 27.9934 28.3618 28.1332 28.0935 28.2731C27.0041 28.846 25.91 29.4685 24.6912 29.6963C23.87 29.8497 23.0159 29.8181 22.2088 30.0301C21.91 30.1091 21.6206 30.2196 21.3382 30.3436H16.1359C15.8888 30.3436 15.6841 30.1587 15.6653 29.9219C15.6465 29.694 15.6418 29.4662 15.6512 29.2362C15.6818 28.449 16.3594 27.8242 17.1806 27.8242H28.5712C28.6865 27.8242 28.8018 27.8378 28.91 27.8626Z" fill="white"/>
<path opacity="0.1" d="M29.9683 29.9119C29.9542 30.0901 29.7989 30.2299 29.6153 30.2299H16.1353C15.9612 30.2299 15.8106 30.1036 15.7871 29.9367C15.8012 29.9412 15.8177 29.9412 15.8342 29.9412H28.7024C29.2483 29.9412 29.7001 29.5127 29.6836 28.9894C29.6836 28.9713 29.6836 28.9533 29.6812 28.933C29.6695 28.6623 29.5753 28.4142 29.4201 28.209C29.7495 28.4436 29.9659 28.8157 29.9824 29.2398C29.9918 29.4631 29.9871 29.6909 29.9683 29.9119Z" fill="black"/>
<path opacity="0.1" d="M29.6794 28.2821C28.5712 28.8347 27.4018 29.2542 26.1735 29.182C25.2771 29.1302 24.383 28.8144 23.5006 28.9723C22.7453 29.1076 22.0888 29.5768 21.3335 29.7098C20.623 29.8339 19.8982 29.6489 19.1853 29.5452C18.47 29.4414 17.6771 29.4369 17.1006 29.8564C16.9053 30.0008 16.7453 30.188 16.5571 30.3436H16.1359C15.8888 30.3436 15.6841 30.1587 15.6653 29.9219C15.6465 29.694 15.6418 29.4662 15.6512 29.2362C15.6818 28.449 16.3594 27.8242 17.1806 27.8242H28.5712C29.0065 27.8242 29.4018 28.0001 29.6794 28.2821Z" fill="white"/>
<defs>
<clipPath id="clip0_1945_2660">
<rect width="16" height="22" fill="white" transform="translate(2 9)"/>
</clipPath>
</defs>
</svg>
