<svg width="51" height="48" viewBox="0 0 51 48" fill="none" xmlns="http://www.w3.org/2000/svg">
<g clip-path="url(#clip0_1454_21302)">
<path d="M50.17 40.2578C49.6771 37.927 47.8261 36.3907 45.4389 36.3382C45.1531 36.3317 44.8674 36.3382 44.5619 36.3382V35.6828C44.5619 31.9546 44.5619 28.2264 44.5619 24.4982C44.5619 22.7088 43.6377 21.7898 41.8379 21.7885C37.8816 21.7885 33.924 21.7885 29.9677 21.7872C29.7645 21.7872 29.5613 21.7675 29.3659 21.7571V3.47128C29.5193 3.61024 29.615 3.69151 29.7068 3.77934C31.3887 5.40355 33.0614 7.03694 34.7564 8.64803C35.2545 9.12127 35.4721 9.6535 35.4669 10.3417C35.4459 13.1208 35.4564 15.9013 35.4616 18.6804C35.4616 18.8901 35.4682 19.1117 35.5337 19.307C35.653 19.6622 35.9624 19.868 36.298 19.7461C36.5444 19.657 36.7345 19.3765 36.9102 19.1497C36.9744 19.0671 36.9312 18.8954 36.9312 18.7656C36.9312 15.9366 36.9181 13.1077 36.939 10.2801C36.9469 9.21303 36.5733 8.35308 35.8077 7.62029C33.6356 5.53857 31.4726 3.44768 29.3201 1.34631C28.9333 0.968768 28.565 0.88487 28.0446 1.06315C24.2154 2.37274 20.3771 3.65612 16.5414 4.94605C16.3788 5.0011 16.2097 5.03388 15.9908 5.09156C15.9908 4.13722 16.0052 3.24056 15.9882 2.3439C15.9593 0.996297 14.9578 -0.00392115 13.6626 1.15566e-05C12.2574 0.00394426 11.3056 0.958281 11.2991 2.38061C11.2938 3.65612 11.2755 4.93163 11.3096 6.20582C11.3201 6.61745 11.1746 6.77082 10.8075 6.87963C10.0105 7.11821 9.22786 7.4053 8.4387 7.66748C6.64145 8.26525 5.92439 9.26023 5.92439 11.165C5.92439 19.3411 5.92439 27.5158 5.92439 35.6919V36.2989C5.80641 36.3238 5.75922 36.3395 5.71333 36.3435C2.74545 36.5965 0.468414 38.631 0.110537 41.5831C-0.0808545 43.1628 0.0253286 44.7817 0.0463031 46.3824C0.0528576 46.9067 0.334702 47.4035 0.813181 47.6225C1.26938 47.8309 1.80291 47.9712 2.30368 47.9712C17.5101 47.9882 32.7166 47.979 47.9231 47.9974C49.0518 47.9987 49.8527 47.6395 50.2604 46.5554V40.4715C50.2303 40.3994 50.1857 40.3299 50.17 40.2552V40.2578ZM5.88899 37.8366V41.9056H1.5604C1.66789 39.7518 3.72994 37.8077 5.88899 37.8366ZM5.89555 46.5082C4.54663 46.5082 3.22524 46.5213 1.90516 46.4885C1.76359 46.4846 1.51845 46.2132 1.51189 46.0586C1.47256 45.1973 1.49354 44.3321 1.49354 43.4394H5.89555V46.5082ZM12.7804 2.22199C12.787 1.77235 13.1278 1.49051 13.5892 1.47215C14.0664 1.4538 14.4571 1.75662 14.499 2.24165C14.5383 2.69523 14.5147 3.15535 14.5174 3.61155C14.5187 3.83964 14.5226 4.06905 14.5174 4.29715C14.5042 4.73368 14.655 5.37209 14.4295 5.56086C14.0127 5.91087 13.3756 5.9987 12.7752 6.21631C12.7752 4.82806 12.7634 3.52372 12.7817 2.22068L12.7804 2.22199ZM15.6211 46.4938H12.8079C12.7948 46.3522 12.7725 46.229 12.7725 46.1058C12.7699 44.4907 12.783 42.8757 12.7621 41.2607C12.7568 40.8556 12.9089 40.6734 13.2851 40.579C14.0546 40.3863 14.8176 40.1647 15.6211 39.9432V46.4925V46.4938ZM19.9746 46.4807H17.1444V39.5132C18.0699 39.2563 18.9915 38.9994 19.9746 38.7267V46.4807ZM11.3306 28.9054C11.4656 29.3367 11.8811 29.5084 12.4186 29.3301C14.1687 28.7494 15.9174 28.1595 17.6661 27.5735C20.946 26.4724 24.2259 25.3712 27.5071 24.2714C27.5962 24.2412 27.6867 24.2176 27.8505 24.1678C27.8505 25.3765 27.8637 26.5038 27.8335 27.6299C27.8296 27.7636 27.608 27.9576 27.4481 28.0114C24.3596 29.0666 21.2646 30.1062 18.1708 31.1484C18.0476 31.1903 17.9191 31.2218 17.7999 31.2742C17.4079 31.4486 17.2401 31.8182 17.3738 32.1971C17.5075 32.5746 17.8654 32.7765 18.277 32.6467C19.2576 32.3373 20.229 32.0018 21.2043 31.6753C23.3856 30.9452 25.567 30.2137 27.802 29.4652V46.4702H21.5215C21.5136 46.3063 21.4979 46.1346 21.4979 45.9629C21.4966 43.6898 21.4979 41.4167 21.4966 39.1436C21.4953 37.7042 20.5973 37.0264 19.2078 37.4132C17.0841 38.0031 14.9618 38.5956 12.8407 39.1894C11.7553 39.4936 11.3043 40.0887 11.3017 41.2135C11.2991 42.7839 11.3017 44.3531 11.3017 45.9235V46.4846H7.40047V45.934C7.40047 34.3234 7.40047 22.7127 7.40047 11.1034C7.40047 9.92879 7.74523 9.45162 8.85426 9.07801C14.9644 7.02383 21.0745 4.96833 27.1859 2.91546C27.3826 2.84991 27.5831 2.79748 27.8532 2.71751V5.40224C27.8532 6.2718 27.4455 6.84336 26.6301 7.1169C21.7876 8.74504 16.9451 10.3732 12.1014 12.0013C11.9781 12.0433 11.8484 12.076 11.733 12.1337C11.3791 12.3094 11.227 12.6109 11.3306 12.9858C11.4407 13.3869 11.7409 13.5679 12.1551 13.5062C12.3465 13.4774 12.5326 13.4053 12.7175 13.3437C17.6701 11.6828 22.6214 10.0219 27.5726 8.35964C27.6329 8.33997 27.6945 8.32162 27.8519 8.2718V9.10816C27.8519 9.92616 27.8348 10.7442 27.8597 11.5609C27.8702 11.8978 27.7588 12.0393 27.4389 12.1455C23.1811 13.5652 18.9285 15.002 14.6747 16.4322C13.7767 16.7337 12.8774 17.0286 11.9808 17.3341C11.4354 17.5189 11.1982 17.8833 11.3292 18.3107C11.4669 18.7564 11.8851 18.9163 12.4619 18.7236C17.3987 17.0693 22.3343 15.411 27.2698 13.7553C27.4363 13.6989 27.6041 13.6504 27.8519 13.5731V16.1988C27.8519 16.9294 27.504 17.4123 26.8084 17.6474C21.9043 19.2978 17.0015 20.9482 12.0974 22.6C11.9742 22.6419 11.8457 22.6747 11.7291 22.7324C11.3738 22.9093 11.2257 23.2108 11.3292 23.5845C11.4407 23.9843 11.7409 24.1639 12.1564 24.1023C12.3321 24.076 12.5038 24.0144 12.6742 23.9568C17.5482 22.3194 22.4208 20.6795 27.2947 19.0409C27.4481 18.9897 27.6028 18.9452 27.8519 18.8678V19.8064C27.8519 20.5917 27.8335 21.3769 27.861 22.1608C27.8728 22.503 27.7496 22.6354 27.435 22.7415C22.6987 24.3238 17.9663 25.9205 13.2327 27.5132C12.8001 27.6587 12.3622 27.7938 11.9323 27.9458C11.4262 28.1241 11.2021 28.4938 11.3319 28.908L11.3306 28.9054ZM40.135 46.4833H29.3515V43.4472H40.135V46.4833ZM40.173 41.9148H29.3555V23.2843C29.5416 23.2764 29.716 23.2607 29.889 23.2607C33.8781 23.2607 37.8671 23.2594 41.8562 23.2607C42.8092 23.2607 43.0898 23.5399 43.0898 24.4811C43.0898 28.4046 43.0872 32.3282 43.0963 36.2517C43.0963 36.5781 43.0138 36.7616 42.707 36.9334C41.0933 37.8366 40.27 39.2432 40.1756 41.0811C40.1625 41.3406 40.1743 41.6028 40.1743 41.9148H40.173ZM48.7752 46.1529C48.7647 46.5003 48.4592 46.5161 48.1853 46.5161C46.6332 46.5161 45.0824 46.5161 43.5302 46.5161C42.9141 46.5161 42.298 46.5161 41.6622 46.5161V43.4446H48.7817C48.7817 44.3387 48.7988 45.2458 48.7725 46.1529H48.7752ZM48.766 41.9135H41.6701C41.5285 40.4925 41.8746 39.2786 43.0662 38.454C44.3325 37.577 45.7208 37.5298 47.0553 38.2469C48.4723 39.0085 48.9089 40.3181 48.7647 41.9135H48.766Z" fill="white"/>
<path d="M12.1254 34.689C13.1361 34.3849 14.1442 34.0598 15.1222 33.6652C15.3109 33.5891 15.4538 33.1592 15.4473 32.897C15.4394 32.5365 15.1248 32.3595 14.6319 32.3149C13.688 32.6532 12.6223 33.0019 11.5919 33.4371C11.4254 33.5079 11.3271 33.9798 11.369 34.2393C11.4267 34.592 11.7754 34.7939 12.1228 34.689H12.1254Z" fill="white"/>
<path d="M40.9792 33.7702C41.0264 33.12 41.0251 32.4619 40.9792 31.8117C40.9294 31.1222 40.4325 30.6751 39.7391 30.6712C37.3532 30.6581 34.9674 30.6581 32.5815 30.6712C31.8199 30.6751 31.3336 31.1785 31.3126 31.9375C31.2995 32.4435 31.306 32.9509 31.3087 33.4569C31.3139 34.4689 31.7557 34.908 32.7821 34.912C33.8938 34.9172 35.0041 34.912 36.1157 34.912C37.3087 34.912 38.5016 34.9225 39.6945 34.908C40.4443 34.8989 40.9281 34.4872 40.9805 33.7689L40.9792 33.7702ZM39.4952 33.4018H32.8162V32.1578H39.4952V33.4018Z" fill="white"/>
<path d="M36.1168 34.912C35.0052 34.9133 33.8948 34.9172 32.7832 34.912C33.8948 34.9172 35.0052 34.912 36.1168 34.912C37.3098 34.912 38.5027 34.9225 39.6956 34.9067C38.5027 34.9212 37.3098 34.9107 36.1168 34.9107V34.912Z" fill="white"/>
<path d="M32.7189 29.317C33.8633 29.3275 35.0064 29.3196 36.1508 29.317C37.328 29.317 38.5039 29.3288 39.6811 29.3131C40.4401 29.3026 40.9251 28.9001 40.9775 28.1857C41.026 27.5198 41.0234 26.8447 40.9736 26.18C40.9251 25.5351 40.4453 25.0841 39.803 25.0802C37.3686 25.0618 34.933 25.0605 32.4986 25.0802C31.8038 25.0854 31.3332 25.6163 31.3136 26.3268C31.2992 26.8499 31.3057 27.3729 31.3096 27.896C31.3175 28.8543 31.7606 29.3091 32.7189 29.3183V29.317ZM32.8106 26.5707H39.4936V27.8213H32.8106V26.5707Z" fill="white"/>
<path d="M36.1507 29.3184C35.0063 29.3184 33.8632 29.3276 32.7188 29.3184C33.8632 29.3289 35.0063 29.321 36.1507 29.3197C37.3279 29.3197 38.5038 29.3302 39.681 29.3145C38.5051 29.3302 37.3279 29.3184 36.1507 29.3184Z" fill="white"/>
<path d="M35.0296 36.3449C34.6062 36.3187 34.1802 36.3396 33.7554 36.3396V36.3331C33.3464 36.3331 32.9374 36.3187 32.5298 36.3357C31.8114 36.3659 31.3355 36.8352 31.3145 37.5444C31.2962 38.1487 31.2962 38.753 31.3145 39.3573C31.3355 40.0377 31.8153 40.5424 32.4865 40.5634C33.3189 40.5883 34.1526 40.5883 34.9851 40.5634C35.6209 40.545 36.1072 40.0783 36.1387 39.4491C36.1727 38.7819 36.1714 38.1094 36.1387 37.4408C36.1072 36.8247 35.6458 36.3816 35.027 36.3436L35.0296 36.3449ZM34.6547 39.0755H32.8064V37.8275H34.6547V39.0755Z" fill="white"/>
</g>
<defs>
<clipPath id="clip0_1454_21302">
<rect width="50.2613" height="48" fill="white"/>
</clipPath>
</defs>
</svg>
