<svg width="24" height="25" viewBox="0 0 24 25" fill="none" xmlns="http://www.w3.org/2000/svg">
<path d="M21.97 18.7314C21.97 19.0914 21.89 19.4614 21.72 19.8214C21.55 20.1814 21.33 20.5214 21.04 20.8414C20.55 21.3814 20.01 21.7714 19.4 22.0214C18.8 22.2714 18.15 22.4014 17.45 22.4014C16.43 22.4014 15.34 22.1614 14.19 21.6714C13.04 21.1814 11.89 20.5214 10.75 19.6914C9.6 18.8514 8.51 17.9214 7.47 16.8914C6.44 15.8514 5.51 14.7614 4.68 13.6214C3.86 12.4814 3.2 11.3414 2.72 10.2114C2.24 9.07137 2 7.98137 2 6.94137C2 6.26137 2.12 5.61137 2.36 5.01137C2.6 4.40137 2.98 3.84137 3.51 3.34137C4.15 2.71137 4.85 2.40137 5.59 2.40137C5.87 2.40137 6.15 2.46137 6.4 2.58137C6.66 2.70137 6.89 2.88137 7.07 3.14137L9.39 6.41137C9.57 6.66137 9.7 6.89137 9.79 7.11137C9.88 7.32137 9.93 7.53137 9.93 7.72137C9.93 7.96137 9.86 8.20137 9.72 8.43137C9.59 8.66137 9.4 8.90137 9.16 9.14137L8.4 9.93137C8.29 10.0414 8.24 10.1714 8.24 10.3314C8.24 10.4114 8.25 10.4814 8.27 10.5614C8.3 10.6414 8.33 10.7014 8.35 10.7614C8.53 11.0914 8.84 11.5214 9.28 12.0414C9.73 12.5614 10.21 13.0914 10.73 13.6214C11.27 14.1514 11.79 14.6414 12.32 15.0914C12.84 15.5314 13.27 15.8314 13.61 16.0114C13.66 16.0314 13.72 16.0614 13.79 16.0914C13.87 16.1214 13.95 16.1314 14.04 16.1314C14.21 16.1314 14.34 16.0714 14.45 15.9614L15.21 15.2114C15.46 14.9614 15.7 14.7714 15.93 14.6514C16.16 14.5114 16.39 14.4414 16.64 14.4414C16.83 14.4414 17.03 14.4814 17.25 14.5714C17.47 14.6614 17.7 14.7914 17.95 14.9614L21.26 17.3114C21.52 17.4914 21.7 17.7014 21.81 17.9514C21.91 18.2014 21.97 18.4514 21.97 18.7314Z" stroke="#292D32" stroke-width="1.5" stroke-miterlimit="10"/>
</svg>
