<svg width="118" height="30" viewBox="0 0 118 30" fill="none" xmlns="http://www.w3.org/2000/svg">
<g clip-path="url(#clip0_66_152)">
<path d="M21.1033 17.6321C20.557 18.6443 19.7807 19.4252 18.8318 20.0614C17.8831 20.6689 16.733 20.9869 15.3528 20.9869C14.4327 20.9869 13.5702 20.8134 12.7651 20.4953C11.9888 20.1771 11.2987 19.7144 10.7237 19.1359C10.1486 18.5576 9.68858 17.8634 9.37227 17.0825C9.056 16.3016 8.88348 15.434 8.88348 14.4796C8.88348 13.583 9.05599 12.7443 9.34352 11.9634C9.65981 11.1825 10.0911 10.4595 10.6661 9.88103C11.2124 9.30256 11.9025 8.83985 12.6501 8.49279C13.4264 8.14572 14.2889 7.9722 15.209 7.9722C16.1867 7.9722 17.078 8.14572 17.7967 8.46386C18.5731 8.782 19.1769 9.24476 19.6945 9.82315C20.212 10.4016 20.5858 11.0958 20.8445 11.8477C21.1033 12.6286 21.2471 13.4962 21.2471 14.3929V14.682C21.2183 14.7688 21.2183 14.8556 21.2183 14.9712C21.2471 15.0291 21.2471 15.1159 21.2471 15.2026H12.075C12.1325 15.6943 12.2763 16.1281 12.5063 16.4752C12.7363 16.8222 12.9664 17.1404 13.2826 17.3718C13.5702 17.6031 13.9439 17.8055 14.2889 17.8924C14.6627 18.008 15.0366 18.0658 15.4103 18.0658C16.1579 18.0658 16.7904 17.8924 17.2792 17.5452C17.5667 17.3718 17.7967 17.1115 17.9981 16.8801C18.2856 16.533 18.7744 16.4463 19.1769 16.6198L21.1033 17.6321ZM18.1418 12.8889C18.1131 12.6865 18.0555 12.4262 17.9405 12.1659C17.8255 11.9056 17.6531 11.6453 17.3942 11.4139C17.1642 11.1825 16.848 10.9801 16.5029 10.8355C16.1579 10.6909 15.7266 10.604 15.2378 10.604C14.5477 10.604 13.9439 10.8065 13.3976 11.2114C12.8513 11.6164 12.5063 12.1659 12.2763 12.8889H18.1418Z" fill="#60D1FA"/>
<path d="M22.2598 28.9516H7.85483C3.91572 28.9516 0.666687 25.7123 0.666687 21.7211V7.23134C0.666687 3.26907 3.88698 0.000915527 7.85483 0.000915527H22.2598C26.2277 0.000915527 29.448 3.24014 29.448 7.23134V21.7211C29.448 25.7123 26.2277 28.9516 22.2598 28.9516ZM7.85483 2.14112C5.06583 2.14112 2.79438 4.42594 2.79438 7.23134V21.7211C2.79438 24.5265 5.06583 26.8113 7.85483 26.8113H22.2598C25.0489 26.8113 27.3203 24.5265 27.3203 21.7211V7.23134C27.3203 4.42594 25.0489 2.14112 22.2598 2.14112H7.85483Z" fill="#00337C"/>
<path d="M39.3267 21.9423C38.4379 21.9423 37.6954 21.7586 37.0988 21.3912C36.5145 21.0238 36.0762 20.4605 35.7841 19.7013C35.4919 18.9421 35.3458 17.9686 35.3458 16.7808C35.3458 15.6175 35.498 14.6561 35.8023 13.897C36.1188 13.1377 36.5754 12.5744 37.1719 12.2071C37.7684 11.8397 38.4867 11.6561 39.3267 11.6561C40.2276 11.6561 41.0432 11.8642 41.7736 12.2806C42.5163 12.6969 43.1005 13.2908 43.5267 14.0622C43.9649 14.8215 44.1841 15.7277 44.1841 16.7808C44.1841 17.8461 43.9649 18.7646 43.5267 19.536C43.1005 20.2953 42.5163 20.8892 41.7736 21.3177C41.0432 21.7341 40.2276 21.9423 39.3267 21.9423ZM33.0997 21.7769V8.14767H36.5692V13.4928L36.3867 16.7808L36.4049 20.0687V21.7769H33.0997ZM38.5963 19.1687C38.9858 19.1687 39.3327 19.0768 39.6371 18.8931C39.9536 18.7094 40.2032 18.44 40.3858 18.0849C40.5805 17.7176 40.6779 17.2828 40.6779 16.7808C40.6779 16.2787 40.5805 15.8562 40.3858 15.5133C40.2032 15.1582 39.9536 14.8888 39.6371 14.7051C39.3327 14.5215 38.9858 14.4296 38.5963 14.4296C38.2067 14.4296 37.8536 14.5215 37.5371 14.7051C37.2327 14.8888 36.9832 15.1582 36.7884 15.5133C36.6058 15.8562 36.5145 16.2787 36.5145 16.7808C36.5145 17.2828 36.6058 17.7176 36.7884 18.0849C36.9832 18.44 37.2327 18.7094 37.5371 18.8931C37.8536 19.0768 38.2067 19.1687 38.5963 19.1687Z" fill="#00337C"/>
<path d="M49.9601 21.9423C49.1566 21.9423 48.4323 21.7831 47.7871 21.4646C47.1541 21.1463 46.6549 20.6503 46.2897 19.9768C45.9366 19.2911 45.7601 18.4278 45.7601 17.3869V11.8213H49.2297V16.8175C49.2297 17.589 49.3697 18.14 49.6497 18.4706C49.9419 18.8013 50.3497 18.9666 50.8732 18.9666C51.2141 18.9666 51.5244 18.887 51.8044 18.7278C52.0844 18.5686 52.3097 18.3176 52.4801 17.9747C52.6506 17.6196 52.7357 17.1665 52.7357 16.6155V11.8213H56.2053V21.7769H52.9001V18.9666L53.5393 19.7564C53.1984 20.4911 52.7053 21.0422 52.0601 21.4096C51.4149 21.7647 50.7149 21.9423 49.9601 21.9423Z" fill="#00337C"/>
<path d="M62.0377 21.9423C61.1977 21.9423 60.376 21.8443 59.5725 21.6484C58.7811 21.4525 58.142 21.2075 57.6551 20.9136L58.696 18.5258C59.1585 18.8074 59.7003 19.0339 60.3211 19.2054C60.942 19.3646 61.5507 19.4442 62.1473 19.4442C62.7316 19.4442 63.1333 19.3829 63.3525 19.2605C63.5838 19.1381 63.6994 18.9727 63.6994 18.7646C63.6994 18.5686 63.5898 18.4278 63.3707 18.3421C63.1638 18.2442 62.8838 18.1707 62.5307 18.1217C62.1898 18.0727 61.8125 18.0176 61.3985 17.9563C60.9847 17.8951 60.5647 17.8155 60.1385 17.7176C59.7247 17.6074 59.3411 17.4482 58.9881 17.2399C58.6473 17.0195 58.3733 16.7257 58.1664 16.3583C57.9594 15.991 57.856 15.5256 57.856 14.9623C57.856 14.3255 58.0385 13.7622 58.4038 13.2724C58.7811 12.7704 59.329 12.3785 60.0473 12.0969C60.7655 11.803 61.642 11.6561 62.6768 11.6561C63.3707 11.6561 64.0707 11.7295 64.7768 11.8765C65.4951 12.0111 66.0976 12.2194 66.5847 12.501L65.5438 14.8705C65.0568 14.5888 64.5698 14.399 64.0829 14.3011C63.596 14.1909 63.1333 14.1357 62.6951 14.1357C62.1107 14.1357 61.6968 14.2031 61.4533 14.3378C61.222 14.4725 61.1064 14.6378 61.1064 14.8338C61.1064 15.0297 61.2098 15.1827 61.4168 15.2929C61.6238 15.3909 61.8977 15.4705 62.2385 15.5317C62.5916 15.5807 62.9751 15.6358 63.389 15.6971C63.8029 15.746 64.2168 15.8256 64.6307 15.9358C65.0568 16.046 65.4403 16.2114 65.7811 16.4318C66.1342 16.6399 66.4142 16.9278 66.6211 17.2951C66.8281 17.6502 66.9316 18.1094 66.9316 18.6727C66.9316 19.285 66.7429 19.836 66.3655 20.3259C66.0003 20.8157 65.4525 21.2075 64.722 21.5014C64.0038 21.7954 63.109 21.9423 62.0377 21.9423Z" fill="#00337C"/>
<path d="M68.4265 21.7769V11.8213H71.8961V21.7769H68.4265ZM70.1613 10.7193C69.5283 10.7193 69.017 10.5417 68.6274 10.1866C68.2378 9.83144 68.0431 9.39062 68.0431 8.86403C68.0431 8.33749 68.2378 7.89665 68.6274 7.54153C69.017 7.18641 69.5283 7.00885 70.1613 7.00885C70.7944 7.00885 71.3056 7.18028 71.6952 7.52316C72.0849 7.85379 72.2796 8.28239 72.2796 8.80894C72.2796 9.36 72.0849 9.81918 71.6952 10.1866C71.3178 10.5417 70.8065 10.7193 70.1613 10.7193Z" fill="#00337C"/>
<path d="M80.5972 11.6561C81.3642 11.6561 82.058 11.8152 82.6789 12.1336C83.2998 12.4398 83.7867 12.9173 84.1398 13.5664C84.5051 14.2153 84.6876 15.0542 84.6876 16.0828V21.7769H81.2181V16.6522C81.2181 15.9419 81.072 15.4277 80.7798 15.1092C80.4998 14.7786 80.1042 14.6134 79.5929 14.6134C79.2276 14.6134 78.8929 14.699 78.5885 14.8705C78.2842 15.0297 78.0467 15.2807 77.8763 15.6236C77.7059 15.9664 77.6207 16.4134 77.6207 16.9645V21.7769H74.1511V11.8213H77.4564V14.6501L76.8172 13.8235C77.1946 13.101 77.712 12.5622 78.3694 12.2071C79.0267 11.8397 79.7694 11.6561 80.5972 11.6561Z" fill="#00337C"/>
<path d="M92.1763 21.9423C91.0078 21.9423 89.985 21.7219 89.1087 21.281C88.2445 20.8279 87.5688 20.2157 87.0819 19.4442C86.6071 18.6604 86.3697 17.7726 86.3697 16.7808C86.3697 15.7889 86.601 14.9072 87.0636 14.1357C87.5384 13.352 88.1897 12.7459 89.0175 12.3173C89.8456 11.8765 90.7763 11.6561 91.8114 11.6561C92.785 11.6561 93.6736 11.8581 94.4771 12.2622C95.2807 12.654 95.9201 13.2357 96.3947 14.0072C96.8701 14.7786 97.107 15.7154 97.107 16.8175C97.107 16.9399 97.1008 17.0808 97.0885 17.2399C97.0763 17.3992 97.0649 17.5461 97.0526 17.6809H89.2184V15.844H95.2078L93.8929 16.3583C93.9052 15.9052 93.8201 15.5134 93.6377 15.1827C93.4675 14.8521 93.2236 14.5949 92.907 14.4113C92.6026 14.2276 92.2438 14.1357 91.8298 14.1357C91.4157 14.1357 91.0508 14.2276 90.7342 14.4113C90.4298 14.5949 90.1921 14.8582 90.0219 15.2011C89.8517 15.5317 89.7666 15.9236 89.7666 16.3767V16.9093C89.7666 17.3992 89.864 17.8217 90.0587 18.1767C90.2657 18.5319 90.5578 18.8074 90.935 19.0033C91.3122 19.187 91.7631 19.2789 92.2859 19.2789C92.7728 19.2789 93.1868 19.2115 93.528 19.0768C93.8807 18.9298 94.228 18.7094 94.5693 18.4156L96.3947 20.3259C95.9201 20.8524 95.3359 21.2565 94.6421 21.5382C93.9482 21.8075 93.1263 21.9423 92.1763 21.9423Z" fill="#00337C"/>
<path d="M102.305 21.9423C101.464 21.9423 100.642 21.8443 99.8387 21.6484C99.0475 21.4525 98.4089 21.2075 97.9221 20.9136L98.9624 18.5258C99.4256 18.8074 99.9668 19.0339 100.588 19.2054C101.209 19.3646 101.818 19.4442 102.414 19.4442C102.998 19.4442 103.4 19.3829 103.619 19.2605C103.85 19.1381 103.966 18.9727 103.966 18.7646C103.966 18.5686 103.856 18.4278 103.637 18.3421C103.431 18.2442 103.15 18.1707 102.797 18.1217C102.456 18.0727 102.079 18.0176 101.665 17.9563C101.251 17.8951 100.832 17.8155 100.405 17.7176C99.9914 17.6074 99.608 17.4482 99.2545 17.2399C98.9142 17.0195 98.6396 16.7257 98.4335 16.3583C98.2264 15.991 98.1229 15.5256 98.1229 14.9623C98.1229 14.3255 98.3054 13.7622 98.6703 13.2724C99.0475 12.7704 99.5957 12.3785 100.314 12.0969C101.033 11.803 101.909 11.6561 102.943 11.6561C103.637 11.6561 104.337 11.7295 105.043 11.8765C105.762 12.0111 106.364 12.2194 106.851 12.501L105.811 14.8705C105.324 14.5888 104.837 14.399 104.349 14.3011C103.862 14.1909 103.4 14.1357 102.962 14.1357C102.377 14.1357 101.963 14.2031 101.72 14.3378C101.489 14.4725 101.373 14.6378 101.373 14.8338C101.373 15.0297 101.476 15.1827 101.683 15.2929C101.89 15.3909 102.164 15.4705 102.505 15.5317C102.858 15.5807 103.241 15.6358 103.655 15.6971C104.069 15.746 104.483 15.8256 104.897 15.9358C105.324 16.046 105.707 16.2114 106.047 16.4318C106.401 16.6399 106.681 16.9278 106.888 17.2951C107.095 17.6502 107.198 18.1094 107.198 18.6727C107.198 19.285 107.01 19.836 106.633 20.3259C106.267 20.8157 105.719 21.2075 104.989 21.5014C104.27 21.7954 103.376 21.9423 102.305 21.9423Z" fill="#00337C"/>
<path d="M112.29 21.9423C111.451 21.9423 110.629 21.8443 109.825 21.6484C109.034 21.4525 108.395 21.2075 107.908 20.9136L108.949 18.5258C109.411 18.8074 109.953 19.0339 110.574 19.2054C111.195 19.3646 111.803 19.4442 112.4 19.4442C112.984 19.4442 113.386 19.3829 113.605 19.2605C113.837 19.1381 113.953 18.9727 113.953 18.7646C113.953 18.5686 113.843 18.4278 113.624 18.3421C113.417 18.2442 113.137 18.1707 112.783 18.1217C112.443 18.0727 112.066 18.0176 111.652 17.9563C111.238 17.8951 110.817 17.8155 110.391 17.7176C109.977 17.6074 109.594 17.4482 109.241 17.2399C108.9 17.0195 108.626 16.7257 108.419 16.3583C108.212 15.991 108.109 15.5256 108.109 14.9623C108.109 14.3255 108.291 13.7622 108.657 13.2724C109.034 12.7704 109.582 12.3785 110.3 12.0969C111.018 11.803 111.895 11.6561 112.93 11.6561C113.624 11.6561 114.324 11.7295 115.03 11.8765C115.748 12.0111 116.351 12.2194 116.838 12.501L115.796 14.8705C115.31 14.5888 114.823 14.399 114.336 14.3011C113.849 14.1909 113.386 14.1357 112.948 14.1357C112.364 14.1357 111.95 14.2031 111.706 14.3378C111.475 14.4725 111.36 14.6378 111.36 14.8338C111.36 15.0297 111.463 15.1827 111.67 15.2929C111.876 15.3909 112.151 15.4705 112.491 15.5317C112.845 15.5807 113.228 15.6358 113.642 15.6971C114.056 15.746 114.47 15.8256 114.883 15.9358C115.31 16.046 115.693 16.2114 116.034 16.4318C116.387 16.6399 116.667 16.9278 116.874 17.2951C117.081 17.6502 117.184 18.1094 117.184 18.6727C117.184 19.285 116.996 19.836 116.618 20.3259C116.253 20.8157 115.705 21.2075 114.975 21.5014C114.257 21.7954 113.362 21.9423 112.29 21.9423Z" fill="#00337C"/>
</g>
<defs>
<clipPath id="clip0_66_152">
<rect width="116.667" height="30" fill="white" transform="translate(0.666687)"/>
</clipPath>
</defs>
</svg>
