<svg width="49" height="53" viewBox="0 0 49 53" fill="none" xmlns="http://www.w3.org/2000/svg">
<g filter="url(#filter0_d_1997_227)">
<path d="M16.2793 4.5H20.5689C20.7034 4.5 20.8323 4.55344 20.9274 4.6485L23.0287 6.74979L16.6444 7.38647C16.51 7.38647 16.381 7.33303 16.2859 7.23797L16.2793 4.5Z" fill="#D7ECFE"/>
<path d="M29.9694 38.2471H8.50702C8.22704 38.2471 8 38.0201 8 37.7401V5.00702C8 4.72697 8.22697 4.5 8.50702 4.5H16.28L18.3813 6.60129C18.4764 6.69635 18.6053 6.74979 18.7398 6.74979H29.4625C29.7425 6.74979 29.9695 6.97676 29.9695 7.25681L29.9694 38.2471Z" fill="#F0FCFF"/>
<path d="M30.8018 6.75H28.6289C28.9089 6.75 29.1359 6.97697 29.1359 7.25702V38.2473H31.3088V7.25702C31.3088 6.97704 31.0818 6.75 30.8018 6.75Z" fill="#D7ECFE"/>
<path d="M38.7756 20.2495H26.9113C26.6313 20.2495 26.4043 20.0225 26.4043 19.7425V14.007C26.4043 13.727 26.6313 13.5 26.9113 13.5H38.7756C39.0556 13.5 39.2826 13.727 39.2826 14.007V19.7425C39.2826 20.0225 39.0556 20.2495 38.7756 20.2495Z" fill="#7694FE"/>
<path d="M38.4661 29.2475H26.9113C26.6313 29.2475 26.4043 29.0205 26.4043 28.7405V23.0051C26.4043 22.7251 26.6313 22.498 26.9113 22.498H38.4661C38.746 22.498 38.9731 22.725 38.9731 23.0051V28.7405C38.9731 29.0205 38.7461 29.2475 38.4661 29.2475Z" fill="#7694FE"/>
<path d="M40.1143 13.5H37.9414C38.2214 13.5 38.4484 13.727 38.4484 14.007V19.7425C38.4484 20.0225 38.2215 20.2495 37.9414 20.2495H40.1143C40.3943 20.2495 40.6213 20.0225 40.6213 19.7425V14.007C40.6213 13.727 40.3943 13.5 40.1143 13.5Z" fill="#4971FE"/>
<path d="M40.1143 22.498H37.9414C38.2214 22.498 38.4484 22.725 38.4484 23.0051V28.7405C38.4484 29.0205 38.2215 29.2476 37.9414 29.2476H40.1143C40.3943 29.2476 40.6213 29.0206 40.6213 28.7405V23.0051C40.6213 22.725 40.3943 22.498 40.1143 22.498Z" fill="#4971FE"/>
<path d="M10.4385 6.20703C10.1331 6.20703 9.89648 6.45868 9.89648 6.74998C9.89648 7.0569 10.1471 7.29322 10.4397 7.29322C10.7361 7.29322 10.983 7.05233 10.983 6.74998C10.983 6.45038 10.739 6.20703 10.4385 6.20703Z" fill="#7694FE"/>
<path d="M12.7639 7.2935C13.0735 7.2935 13.3071 7.03911 13.3071 6.75027C13.3071 6.45854 13.0705 6.20703 12.7638 6.20703C12.4596 6.20703 12.2207 6.45474 12.2207 6.75027C12.2206 7.05479 12.47 7.2935 12.7639 7.2935Z" fill="#7694FE"/>
<path d="M15.0901 7.2935C15.3921 7.2935 15.6333 7.04579 15.6333 6.75027C15.6333 6.45678 15.3948 6.20703 15.09 6.20703C14.7898 6.20703 14.5469 6.44996 14.5469 6.75027C14.5469 7.05001 14.7901 7.2935 15.0901 7.2935Z" fill="#7694FE"/>
<path d="M37.7304 15.207H29.305C29.0049 15.207 28.7617 15.4502 28.7617 15.7503C28.7617 16.0503 29.0049 16.2935 29.305 16.2935H37.7304C38.0304 16.2935 38.2736 16.0503 38.2736 15.7503C38.2736 15.4502 38.0303 15.207 37.7304 15.207Z" fill="#F2FBFF"/>
<path d="M36.3749 17.457H29.305C29.0049 17.457 28.7617 17.7002 28.7617 18.0003C28.7617 18.3003 29.0049 18.5435 29.305 18.5435H36.3749C36.6749 18.5435 36.9181 18.3003 36.9181 18.0003C36.9181 17.7002 36.6749 17.457 36.3749 17.457Z" fill="#F2FBFF"/>
<path d="M38.2735 24.7503C38.2735 24.4502 38.0303 24.207 37.7303 24.207H29.305C29.0049 24.207 28.7617 24.4502 28.7617 24.7503C28.7617 25.0503 29.0049 25.2935 29.305 25.2935H37.7304C38.0303 25.2934 38.2735 25.0502 38.2735 24.7503Z" fill="#F2FBFF"/>
<path d="M29.305 26.457C29.0049 26.457 28.7617 26.7002 28.7617 27.0003C28.7617 27.3003 29.0049 27.5435 29.305 27.5435H36.3749C36.6749 27.5435 36.9181 27.3003 36.9181 27.0003C36.9181 26.7002 36.6749 26.457 36.3749 26.457H29.305Z" fill="#F2FBFF"/>
<path d="M38.8216 39.3745H18.0715C17.7915 39.3745 17.5645 39.1475 17.5645 38.8675V33.132C17.5645 32.852 17.7914 32.625 18.0715 32.625H38.8217C39.1017 32.625 39.3287 32.852 39.3287 33.132V38.8675C39.3286 39.1475 39.1017 39.3745 38.8216 39.3745Z" fill="#7694FE"/>
<path d="M40.4697 32.625H38.2969C38.5769 32.625 38.8039 32.852 38.8039 33.132V38.8675C38.8039 39.1475 38.5769 39.3745 38.2969 39.3745H40.4697C40.7497 39.3745 40.9768 39.1475 40.9768 38.8675V33.132C40.9768 32.852 40.7498 32.625 40.4697 32.625Z" fill="#4971FE"/>
<path d="M22.4085 35.4185H38.0832C38.3833 35.4185 38.6265 35.1753 38.6265 34.8753C38.6265 34.5752 38.3833 34.332 38.0832 34.332H22.4085C22.1084 34.332 21.8652 34.5752 21.8652 34.8753C21.8652 35.1753 22.1084 35.4185 22.4085 35.4185Z" fill="#F2FBFF"/>
<path d="M22.4085 37.6685H36.7278C37.0278 37.6685 37.271 37.4253 37.271 37.1253C37.271 36.8252 37.0278 36.582 36.7278 36.582H22.4085C22.1084 36.582 21.8652 36.8252 21.8652 37.1253C21.8652 37.4253 22.1084 37.6685 22.4085 37.6685Z" fill="#F2FBFF"/>
<circle cx="15.3145" cy="36" r="4.5" fill="#12D2C7"/>
<mask id="mask0_1997_227" style="mask-type:luminance" maskUnits="userSpaceOnUse" x="13" y="32" width="5" height="8">
<path d="M13.0645 32.625H17.5645V39.375H13.0645V32.625Z" fill="white"/>
<path d="M15.3156 35.3227C15.6884 35.3227 15.9906 35.0204 15.9906 34.6477C15.9906 34.2749 15.6884 33.9727 15.3156 33.9727C14.9428 33.9727 14.6406 34.2749 14.6406 34.6477C14.6406 35.0204 14.9428 35.3227 15.3156 35.3227Z" fill="black"/>
<path d="M15.3156 36.8266C15.3778 36.8266 15.4281 36.7762 15.4281 36.7141C15.4281 36.6519 15.3778 36.6016 15.3156 36.6016C15.2535 36.6016 15.2031 36.6519 15.2031 36.7141C15.2031 36.7762 15.2535 36.8266 15.3156 36.8266Z" fill="black"/>
<path d="M15.3156 37.4203C15.3778 37.4203 15.4281 37.3699 15.4281 37.3078C15.4281 37.2457 15.3778 37.1953 15.3156 37.1953C15.2535 37.1953 15.2031 37.2457 15.2031 37.3078C15.2031 37.3699 15.2535 37.4203 15.3156 37.4203Z" fill="black"/>
<path d="M15.3162 36.3809C15.4043 36.3809 15.4887 36.4158 15.5509 36.4781C15.6132 36.5403 15.6481 36.6247 15.6481 36.7127C15.6481 36.8008 15.6132 36.8852 15.5509 36.9474C15.4887 37.0096 15.4043 37.0446 15.3162 37.0446C15.2461 37.0446 15.1789 37.0725 15.1293 37.122C15.0797 37.1716 15.0519 37.2389 15.0519 37.309C15.0519 37.3791 15.0797 37.4463 15.1293 37.4959C15.1789 37.5455 15.2461 37.5734 15.3162 37.5734V37.6409C15.2282 37.6409 15.1438 37.6059 15.0816 37.5437C15.0193 37.4814 14.9844 37.397 14.9844 37.309C14.9844 37.221 15.0193 37.1366 15.0816 37.0743C15.1438 37.0121 15.2282 36.9771 15.3162 36.9771C15.3864 36.9771 15.4536 36.9493 15.5032 36.8997C15.5528 36.8501 15.5806 36.7829 15.5806 36.7127C15.5806 36.6426 15.5528 36.5754 15.5032 36.5258C15.4536 36.4762 15.3864 36.4484 15.3162 36.4484V36.3809Z" fill="black"/>
</mask>
<g mask="url(#mask0_1997_227)">
<path d="M15.3141 35.55C15.6558 35.55 15.9328 35.273 15.9328 34.9313C15.9328 34.5895 15.6558 34.3125 15.3141 34.3125C14.9723 34.3125 14.6953 34.5895 14.6953 34.9313C14.6953 35.273 14.9723 35.55 15.3141 35.55Z" fill="#F2FBFF"/>
</g>
<path d="M15.3133 35.2125C15.5618 35.2125 15.7633 35.011 15.7633 34.7625C15.7633 34.514 15.5618 34.3125 15.3133 34.3125C15.0648 34.3125 14.8633 34.514 14.8633 34.7625C14.8633 35.011 15.0648 35.2125 15.3133 35.2125Z" fill="#F2FBFF"/>
<path d="M15.3629 33.299C15.307 33.3243 15.2861 33.3701 15.2816 33.4156C15.2788 33.454 15.2957 33.4972 15.2974 33.5347C15.2974 33.5993 15.2306 33.6206 15.2306 33.7127C15.2306 33.7444 15.2599 33.7793 15.2599 33.8615C15.2548 33.9046 15.2307 33.9143 15.2036 33.9177C15.1887 33.9177 15.1744 33.9118 15.1638 33.9012C15.1533 33.8907 15.1474 33.8764 15.1474 33.8615C15.1474 33.847 15.153 33.8332 15.1629 33.8228C15.1647 33.8208 15.1666 33.8189 15.1687 33.8171C15.1815 33.8042 15.1991 33.7992 15.199 33.7651C15.199 33.7475 15.1876 33.7315 15.1768 33.7005C15.1665 33.6703 15.174 33.6199 15.1983 33.5902C15.159 33.6053 15.1347 33.6431 15.1223 33.6769C15.1093 33.7186 15.1206 33.7425 15.1027 33.7771C15.0918 33.7995 15.0788 33.8088 15.0665 33.8275C15.0519 33.8478 15.0348 33.8955 15.0348 33.9176C15.0348 33.9922 15.0645 34.0637 15.1172 34.1164C15.17 34.1692 15.2415 34.1988 15.3161 34.1988C15.3907 34.1988 15.4622 34.1692 15.515 34.1164C15.5677 34.0637 15.5973 33.9922 15.5973 33.9176C15.5973 33.8955 15.5805 33.8478 15.5659 33.8275C15.5536 33.8088 15.5404 33.7995 15.5294 33.7771C15.5118 33.7425 15.5231 33.7186 15.5101 33.6769C15.4977 33.6431 15.4734 33.6054 15.4341 33.5902C15.4584 33.6199 15.4659 33.6703 15.4556 33.7005C15.4447 33.7315 15.4332 33.7475 15.4332 33.7651C15.4332 33.7992 15.4507 33.8042 15.4635 33.8171C15.4656 33.8189 15.4675 33.8208 15.4693 33.8228C15.4792 33.8332 15.4848 33.847 15.4849 33.8615C15.4849 33.8764 15.4789 33.8907 15.4684 33.9012C15.4578 33.9118 15.4435 33.9177 15.4286 33.9177C15.3975 33.9138 15.3752 33.8993 15.3724 33.8615C15.3724 33.7532 15.4187 33.7463 15.4187 33.6661C15.4187 33.5517 15.3161 33.4975 15.3161 33.4139C15.3161 33.3855 15.3227 33.3372 15.3629 33.2988L15.3629 33.299ZM14.0781 35.6615H14.6406V38.3615H14.0781V35.6615ZM15.9906 35.6615H16.5531V38.3615H15.9906V35.6615ZM14.7531 35.6615H15.8781L15.3156 35.999L14.7531 35.6615ZM14.7531 36.1115H15.8781V36.3365H14.7531V36.1115ZM14.7531 37.6865H15.8781V37.9115H14.7531V37.6865ZM14.7531 38.024H15.8781L15.3156 38.3615L14.7531 38.024Z" fill="#F2FBFF"/>
<mask id="mask1_1997_227" style="mask-type:luminance" maskUnits="userSpaceOnUse" x="13" y="32" width="5" height="8">
<path d="M13.0645 32.625H17.5645V39.375H13.0645V32.625Z" fill="white"/>
<path d="M15.3156 35.3227C15.6884 35.3227 15.9906 35.0204 15.9906 34.6477C15.9906 34.2749 15.6884 33.9727 15.3156 33.9727C14.9428 33.9727 14.6406 34.2749 14.6406 34.6477C14.6406 35.0204 14.9428 35.3227 15.3156 35.3227Z" fill="black"/>
<path d="M15.3156 36.8266C15.3778 36.8266 15.4281 36.7762 15.4281 36.7141C15.4281 36.6519 15.3778 36.6016 15.3156 36.6016C15.2535 36.6016 15.2031 36.6519 15.2031 36.7141C15.2031 36.7762 15.2535 36.8266 15.3156 36.8266Z" fill="black"/>
<path d="M15.3156 37.4203C15.3778 37.4203 15.4281 37.3699 15.4281 37.3078C15.4281 37.2457 15.3778 37.1953 15.3156 37.1953C15.2535 37.1953 15.2031 37.2457 15.2031 37.3078C15.2031 37.3699 15.2535 37.4203 15.3156 37.4203Z" fill="black"/>
<path d="M15.3162 36.3809C15.4043 36.3809 15.4887 36.4158 15.5509 36.4781C15.6132 36.5403 15.6481 36.6247 15.6481 36.7127C15.6481 36.8008 15.6132 36.8852 15.5509 36.9474C15.4887 37.0096 15.4043 37.0446 15.3162 37.0446C15.2461 37.0446 15.1789 37.0725 15.1293 37.122C15.0797 37.1716 15.0519 37.2389 15.0519 37.309C15.0519 37.3791 15.0797 37.4463 15.1293 37.4959C15.1789 37.5455 15.2461 37.5734 15.3162 37.5734V37.6409C15.2282 37.6409 15.1438 37.6059 15.0816 37.5437C15.0193 37.4814 14.9844 37.397 14.9844 37.309C14.9844 37.221 15.0193 37.1366 15.0816 37.0743C15.1438 37.0121 15.2282 36.9771 15.3162 36.9771C15.3864 36.9771 15.4536 36.9493 15.5032 36.8997C15.5528 36.8501 15.5806 36.7829 15.5806 36.7127C15.5806 36.6426 15.5528 36.5754 15.5032 36.5258C15.4536 36.4762 15.3864 36.4484 15.3162 36.4484V36.3809Z" fill="black"/>
</mask>
<g mask="url(#mask1_1997_227)">
<path d="M15.3145 37.5762C15.6251 37.5762 15.877 37.3243 15.877 37.0137C15.877 36.703 15.6251 36.4512 15.3145 36.4512C15.0038 36.4512 14.752 36.703 14.752 37.0137C14.752 37.3243 15.0038 37.5762 15.3145 37.5762Z" fill="#F2FBFF"/>
</g>
<path d="M16.4229 24.3115H13.6113C13.0429 24.3115 12.582 23.878 12.582 23.3431V17.1777H17.4522V23.3431C17.4522 23.878 16.9913 24.3115 16.4229 24.3115Z" fill="#7A6C79"/>
<path d="M21.2424 24.3115H18.4551C17.8866 24.3115 17.4258 23.878 17.4258 23.3431V17.1777H22.2717V23.3431C22.2717 23.878 21.8108 24.3115 21.2424 24.3115Z" fill="#685F67"/>
<path d="M22.9996 24.5731L21.072 24.0517L13.9458 24.0137L11.0221 24.8045C10.2288 25.0396 9.68945 25.7318 9.68945 26.5141V29.2503H17.4504L24.2562 28.6878V26.5141C24.2562 25.0743 22.9996 24.5731 22.9996 24.5731Z" fill="#FF7E8E"/>
<path d="M19.0047 23.4922H15.8718L13.9453 24.0132V24.0512L15.4474 27.6318L17.4499 29.2499L19.0047 27.6318L19.8228 23.7135L19.0047 23.4922Z" fill="#F0FCFF"/>
<path d="M17.4232 28.6797C17.2294 28.6797 17.0723 28.5319 17.0723 28.3496V24.1134C17.0723 23.931 17.2294 23.7832 17.4232 23.7832C17.617 23.7832 17.7741 23.931 17.7741 24.1134V28.3496C17.7741 28.5319 17.617 28.6797 17.4232 28.6797Z" fill="#D7ECFE"/>
<path d="M23.8534 24.8037L22.9978 24.5723C23.4812 24.9031 23.7824 25.4374 23.7824 26.022L23.7824 28.6871L16.3594 29.2496L17.4485 29.2496H25.186L25.186 26.5133C25.186 25.7311 24.6467 25.0388 23.8534 24.8037Z" fill="#F45175"/>
<path d="M19.823 23.7129L18.0256 27.6312L16.7441 28.6789L17.4501 29.2494L19.4292 27.6312L21.0716 24.0506L19.823 23.7129Z" fill="#D7ECFE"/>
<path d="M18.1446 21.4062V23.5227C17.5226 24.0828 16.7377 24.0098 16.7377 24.0098C16.4235 23.9138 16.127 23.7513 15.873 23.5227V21.4062C16.264 21.714 16.7315 21.8926 17.2347 21.8926H17.6443C18.1475 21.8926 17.7537 21.714 18.1446 21.4062Z" fill="#FFDACC"/>
<path d="M17.6429 21.8926H17.6009V23.389C17.6009 23.4764 17.5609 23.5603 17.4897 23.6165C17.262 23.7964 17.0057 23.9275 16.7363 24.0098C17.506 24.2452 18.3825 24.0828 19.0045 23.5227V21.4062C18.6136 21.7141 18.1461 21.8926 17.6429 21.8926Z" fill="#FCCCB9"/>
<path d="M20.3709 13.5953V19.3384C20.3709 20.9768 18.9593 22.3049 17.2179 22.3049C17.2179 22.3049 16.8811 22.2951 16.7369 22.276C15.2045 22.074 14.0254 20.8358 14.0254 19.3384V12.8496H19.5784C20.016 12.8496 20.3709 13.1834 20.3709 13.5953Z" fill="#FFECE4"/>
<path d="M20.0589 12.8496H18.6553C19.0929 12.8496 19.4478 13.1834 19.4478 13.5953V19.3384C19.4478 20.8358 18.2686 22.074 16.7363 22.276C16.8806 22.295 17.028 22.3049 17.1778 22.3049H17.6985C19.4399 22.3049 20.8515 20.9768 20.8515 19.3384V13.5953C20.8514 13.1834 20.4966 12.8496 20.0589 12.8496Z" fill="#FFDACC"/>
<path d="M19.6621 11.7246V13.3425V14.5397C19.6621 14.8939 19.7862 15.2382 20.0152 15.5193C20.2468 15.8035 20.533 16.1115 20.8544 16.2856C21.281 16.5166 21.7696 16.6571 22.2745 16.6571V16.5682V14.0626C22.2746 12.7713 21.0345 11.7246 19.6621 11.7246Z" fill="#685F67"/>
<path d="M13.6272 16.7741H12.582V14.533C12.582 12.7198 14.1443 11.25 16.0714 11.25H18.5929C19.3567 11.25 19.9759 11.8326 19.9759 12.5512C19.9759 13.7466 19.0342 14.7626 17.7734 14.911C17.2032 14.9782 16.5224 15.0068 15.7314 14.9569C14.8685 14.9025 14.1179 15.4964 14.0272 16.2856L13.6272 16.7741Z" fill="#7A6C79"/>
<path d="M14.0256 16.2852H13.3424C12.8189 16.2852 12.3945 16.6845 12.3945 17.177V17.8453C12.3945 18.3378 12.8189 18.7371 13.3424 18.7371H14.0256V16.2852Z" fill="#FCCCB9"/>
<path d="M20.8516 16.2852H21.5347C22.0582 16.2852 22.4826 16.6845 22.4826 17.177V17.8453C22.4826 18.3378 22.0582 18.7371 21.5347 18.7371H20.8516V16.2852Z" fill="#FCCCB9"/>
<path d="M22.2806 28.6807C22.0868 28.6807 21.9297 28.5329 21.9297 28.3505V26.2657C21.9297 26.0833 22.0868 25.9355 22.2806 25.9355C22.4744 25.9355 22.6315 26.0833 22.6315 26.2657V28.3505C22.6315 28.5329 22.4744 28.6807 22.2806 28.6807Z" fill="#F45175"/>
<path d="M12.5814 28.6807C12.3876 28.6807 12.2305 28.5329 12.2305 28.3505V26.2657C12.2305 26.0833 12.3876 25.9355 12.5814 25.9355C12.7752 25.9355 12.9323 26.0833 12.9323 26.2657V28.3505C12.9323 28.5329 12.7752 28.6807 12.5814 28.6807Z" fill="#F45175"/>
</g>
<defs>
<filter id="filter0_d_1997_227" x="0" y="0.5" width="48.9766" height="52" filterUnits="userSpaceOnUse" color-interpolation-filters="sRGB">
<feFlood flood-opacity="0" result="BackgroundImageFix"/>
<feColorMatrix in="SourceAlpha" type="matrix" values="0 0 0 0 0 0 0 0 0 0 0 0 0 0 0 0 0 0 127 0" result="hardAlpha"/>
<feOffset dy="4"/>
<feGaussianBlur stdDeviation="4"/>
<feComposite in2="hardAlpha" operator="out"/>
<feColorMatrix type="matrix" values="0 0 0 0 0 0 0 0 0 0 0 0 0 0 0 0 0 0 0.04 0"/>
<feBlend mode="normal" in2="BackgroundImageFix" result="effect1_dropShadow_1997_227"/>
<feBlend mode="normal" in="SourceGraphic" in2="effect1_dropShadow_1997_227" result="shape"/>
</filter>
</defs>
</svg>
