<svg width="48" height="48" viewBox="0 0 48 48" fill="none" xmlns="http://www.w3.org/2000/svg">
<path d="M36 45H12C10.6744 44.9984 9.40356 44.4711 8.46622 43.5338C7.52888 42.5964 7.00159 41.3256 7 40V10C7.00159 8.6744 7.52888 7.40356 8.46622 6.46622C9.40356 5.52888 10.6744 5.00159 12 5H14.8C15.0652 5 15.3196 5.10536 15.5071 5.29289C15.6946 5.48043 15.8 5.73478 15.8 6C15.8 6.26522 15.6946 6.51957 15.5071 6.70711C15.3196 6.89464 15.0652 7 14.8 7H12C11.2044 7 10.4413 7.31607 9.87868 7.87868C9.31607 8.44129 9 9.20435 9 10V40C9 40.7956 9.31607 41.5587 9.87868 42.1213C10.4413 42.6839 11.2044 43 12 43H36C36.7956 43 37.5587 42.6839 38.1213 42.1213C38.6839 41.5587 39 40.7956 39 40V10C39 9.20435 38.6839 8.44129 38.1213 7.87868C37.5587 7.31607 36.7956 7 36 7H33.2C32.9348 7 32.6804 6.89464 32.4929 6.70711C32.3054 6.51957 32.2 6.26522 32.2 6C32.2 5.73478 32.3054 5.48043 32.4929 5.29289C32.6804 5.10536 32.9348 5 33.2 5H36C37.3256 5.00159 38.5964 5.52888 39.5338 6.46622C40.4711 7.40356 40.9984 8.6744 41 10V40C40.9984 41.3256 40.4711 42.5964 39.5338 43.5338C38.5964 44.4711 37.3256 44.9984 36 45Z" fill="white"/>
<path d="M30.5584 11H17.4404C16.8116 10.999 16.1991 10.8004 15.6893 10.4324C15.1795 10.0644 14.7982 9.54546 14.5994 8.949L13.9334 6.949C13.7831 6.49842 13.742 6.01861 13.8134 5.54904C13.8848 5.07947 14.0666 4.63356 14.344 4.24801C14.6214 3.86245 14.9864 3.54826 15.4089 3.3313C15.8314 3.11433 16.2994 3.00078 16.7744 3H31.2254C31.7006 3.00031 32.1689 3.11351 32.5918 3.33027C33.0147 3.54704 33.3801 3.86117 33.6578 4.24679C33.9355 4.63242 34.1177 5.0785 34.1892 5.5483C34.2608 6.0181 34.2197 6.49818 34.0694 6.949L33.4044 8.949C33.2052 9.54627 32.8232 10.0657 32.3124 10.4338C31.8016 10.8019 31.188 11 30.5584 11ZM16.7744 5C16.6159 4.99996 16.4597 5.03758 16.3186 5.10975C16.1776 5.18192 16.0557 5.28657 15.963 5.41509C15.8703 5.54362 15.8095 5.69232 15.7856 5.84895C15.7617 6.00559 15.7753 6.16567 15.8254 6.316L16.4924 8.316C16.5586 8.51504 16.6859 8.6882 16.856 8.81095C17.0261 8.9337 17.2306 8.99984 17.4404 9H30.5584C30.7683 9.00005 30.973 8.93401 31.1433 8.81124C31.3136 8.68847 31.441 8.51521 31.5074 8.316L32.1724 6.316C32.2224 6.16583 32.236 6.00593 32.2122 5.84945C32.1884 5.69297 32.1277 5.54438 32.0353 5.4159C31.9428 5.28743 31.8212 5.18273 31.6804 5.11043C31.5396 5.03813 31.3836 5.00028 31.2254 5H16.7744Z" fill="white"/>
<path d="M18 20H15C14.4696 20 13.9609 19.7893 13.5858 19.4142C13.2107 19.0391 13 18.5304 13 18V15C13 14.4696 13.2107 13.9609 13.5858 13.5858C13.9609 13.2107 14.4696 13 15 13H18C18.5304 13 19.0391 13.2107 19.4142 13.5858C19.7893 13.9609 20 14.4696 20 15V18C20 18.5304 19.7893 19.0391 19.4142 19.4142C19.0391 19.7893 18.5304 20 18 20ZM15 15V18H18V15H15ZM34 16H24C23.7348 16 23.4804 15.8946 23.2929 15.7071C23.1054 15.5196 23 15.2652 23 15C23 14.7348 23.1054 14.4804 23.2929 14.2929C23.4804 14.1054 23.7348 14 24 14H34C34.2652 14 34.5196 14.1054 34.7071 14.2929C34.8946 14.4804 35 14.7348 35 15C35 15.2652 34.8946 15.5196 34.7071 15.7071C34.5196 15.8946 34.2652 16 34 16ZM32 20H24C23.7348 20 23.4804 19.8946 23.2929 19.7071C23.1054 19.5196 23 19.2652 23 19C23 18.7348 23.1054 18.4804 23.2929 18.2929C23.4804 18.1054 23.7348 18 24 18H32C32.2652 18 32.5196 18.1054 32.7071 18.2929C32.8946 18.4804 33 18.7348 33 19C33 19.2652 32.8946 19.5196 32.7071 19.7071C32.5196 19.8946 32.2652 20 32 20ZM18 30H15C14.4696 30 13.9609 29.7893 13.5858 29.4142C13.2107 29.0391 13 28.5304 13 28V25C13 24.4696 13.2107 23.9609 13.5858 23.5858C13.9609 23.2107 14.4696 23 15 23H18C18.5304 23 19.0391 23.2107 19.4142 23.5858C19.7893 23.9609 20 24.4696 20 25V28C20 28.5304 19.7893 29.0391 19.4142 29.4142C19.0391 29.7893 18.5304 30 18 30ZM15 25V28H18V25H15ZM34 26H24C23.7348 26 23.4804 25.8946 23.2929 25.7071C23.1054 25.5196 23 25.2652 23 25C23 24.7348 23.1054 24.4804 23.2929 24.2929C23.4804 24.1054 23.7348 24 24 24H34C34.2652 24 34.5196 24.1054 34.7071 24.2929C34.8946 24.4804 35 24.7348 35 25C35 25.2652 34.8946 25.5196 34.7071 25.7071C34.5196 25.8946 34.2652 26 34 26ZM32 30H24C23.7348 30 23.4804 29.8946 23.2929 29.7071C23.1054 29.5196 23 29.2652 23 29C23 28.7348 23.1054 28.4804 23.2929 28.2929C23.4804 28.1054 23.7348 28 24 28H32C32.2652 28 32.5196 28.1054 32.7071 28.2929C32.8946 28.4804 33 28.7348 33 29C33 29.2652 32.8946 29.5196 32.7071 29.7071C32.5196 29.8946 32.2652 30 32 30ZM18 40H15C14.4696 40 13.9609 39.7893 13.5858 39.4142C13.2107 39.0391 13 38.5304 13 38V35C13 34.4696 13.2107 33.9609 13.5858 33.5858C13.9609 33.2107 14.4696 33 15 33H18C18.5304 33 19.0391 33.2107 19.4142 33.5858C19.7893 33.9609 20 34.4696 20 35V38C20 38.5304 19.7893 39.0391 19.4142 39.4142C19.0391 39.7893 18.5304 40 18 40ZM15 35V38H18V35H15ZM34 36H24C23.7348 36 23.4804 35.8946 23.2929 35.7071C23.1054 35.5196 23 35.2652 23 35C23 34.7348 23.1054 34.4804 23.2929 34.2929C23.4804 34.1054 23.7348 34 24 34H34C34.2652 34 34.5196 34.1054 34.7071 34.2929C34.8946 34.4804 35 34.7348 35 35C35 35.2652 34.8946 35.5196 34.7071 35.7071C34.5196 35.8946 34.2652 36 34 36ZM32 40H24C23.7348 40 23.4804 39.8946 23.2929 39.7071C23.1054 39.5196 23 39.2652 23 39C23 38.7348 23.1054 38.4804 23.2929 38.2929C23.4804 38.1054 23.7348 38 24 38H32C32.2652 38 32.5196 38.1054 32.7071 38.2929C32.8946 38.4804 33 38.7348 33 39C33 39.2652 32.8946 39.5196 32.7071 39.7071C32.5196 39.8946 32.2652 40 32 40Z" fill="white"/>
</svg>
